<?xml version="1.0" encoding="UTF-8"?>
<svg id="_图层_1" data-name="图层_1" xmlns="http://www.w3.org/2000/svg" xmlns:xlink="http://www.w3.org/1999/xlink" version="1.1" viewBox="0 0 928.71 355.61">
  <!-- Generator: Adobe Illustrator 29.0.1, SVG Export Plug-In . SVG Version: 2.1.0 Build 192)  -->
  <defs>
    <style>
      .st0, .st1, .st2, .st3, .st4, .st5, .st6, .st7, .st8, .st9, .st10, .st11, .st12, .st13, .st14, .st15, .st16, .st17, .st18, .st19, .st20, .st21, .st22, .st23 {
        fill: none;
      }

      .st1 {
        opacity: .3;
        stroke: #b0b0b0;
      }

      .st1, .st4, .st5, .st6, .st7, .st8, .st9, .st10, .st11, .st12, .st14, .st15, .st16, .st17, .st18, .st20, .st23 {
        stroke-linejoin: round;
      }

      .st1, .st8, .st12, .st15, .st16, .st18, .st19 {
        stroke-linecap: square;
      }

      .st1, .st9, .st19 {
        stroke-width: .8px;
      }

      .st2, .st3, .st13, .st19, .st21, .st22 {
        stroke-miterlimit: 10;
      }

      .st2, .st7, .st10, .st15 {
        stroke: #2ecc71;
      }

      .st3 {
        stroke: #ccc;
      }

      .st3, .st24 {
        opacity: .8;
      }

      .st4, .st5, .st18, .st21 {
        stroke: #f39c12;
      }

      .st5, .st8, .st10, .st12, .st14, .st15, .st16, .st18, .st20, .st23 {
        stroke-width: 2px;
      }

      .st25 {
        fill: #f39c12;
      }

      .st26 {
        fill: #9b59b6;
      }

      .st24, .st27 {
        fill: #fff;
      }

      .st6, .st8, .st13, .st23 {
        stroke: #9b59b6;
      }

      .st28 {
        fill: #2ecc71;
      }

      .st9, .st19 {
        stroke: #000;
      }

      .st29 {
        clip-path: url(#clippath-17);
      }

      .st30 {
        clip-path: url(#clippath-19);
      }

      .st31 {
        clip-path: url(#clippath-11);
      }

      .st32 {
        clip-path: url(#clippath-16);
      }

      .st33 {
        clip-path: url(#clippath-18);
      }

      .st34 {
        clip-path: url(#clippath-10);
      }

      .st35 {
        clip-path: url(#clippath-15);
      }

      .st36 {
        clip-path: url(#clippath-13);
      }

      .st37 {
        clip-path: url(#clippath-14);
      }

      .st38 {
        clip-path: url(#clippath-12);
      }

      .st39 {
        clip-path: url(#clippath-61);
      }

      .st40 {
        clip-path: url(#clippath-67);
      }

      .st41 {
        clip-path: url(#clippath-68);
      }

      .st42 {
        clip-path: url(#clippath-60);
      }

      .st43 {
        clip-path: url(#clippath-65);
      }

      .st44 {
        clip-path: url(#clippath-62);
      }

      .st45 {
        clip-path: url(#clippath-64);
      }

      .st46 {
        clip-path: url(#clippath-66);
      }

      .st47 {
        clip-path: url(#clippath-63);
      }

      .st48 {
        clip-path: url(#clippath-50);
      }

      .st49 {
        clip-path: url(#clippath-55);
      }

      .st50 {
        clip-path: url(#clippath-52);
      }

      .st51 {
        clip-path: url(#clippath-57);
      }

      .st52 {
        clip-path: url(#clippath-54);
      }

      .st53 {
        clip-path: url(#clippath-56);
      }

      .st54 {
        clip-path: url(#clippath-53);
      }

      .st55 {
        clip-path: url(#clippath-70);
      }

      .st56 {
        clip-path: url(#clippath-71);
      }

      .st57 {
        clip-path: url(#clippath-72);
      }

      .st58 {
        clip-path: url(#clippath-51);
      }

      .st59 {
        clip-path: url(#clippath-58);
      }

      .st60 {
        clip-path: url(#clippath-59);
      }

      .st61 {
        clip-path: url(#clippath-31);
      }

      .st62 {
        clip-path: url(#clippath-32);
      }

      .st63 {
        clip-path: url(#clippath-33);
      }

      .st64 {
        clip-path: url(#clippath-34);
      }

      .st65 {
        clip-path: url(#clippath-35);
      }

      .st66 {
        clip-path: url(#clippath-39);
      }

      .st67 {
        clip-path: url(#clippath-30);
      }

      .st68 {
        clip-path: url(#clippath-36);
      }

      .st69 {
        clip-path: url(#clippath-37);
      }

      .st70 {
        clip-path: url(#clippath-38);
      }

      .st71 {
        clip-path: url(#clippath-27);
      }

      .st72 {
        clip-path: url(#clippath-29);
      }

      .st73 {
        clip-path: url(#clippath-26);
      }

      .st74 {
        clip-path: url(#clippath-28);
      }

      .st75 {
        clip-path: url(#clippath-20);
      }

      .st76 {
        clip-path: url(#clippath-21);
      }

      .st77 {
        clip-path: url(#clippath-22);
      }

      .st78 {
        clip-path: url(#clippath-23);
      }

      .st79 {
        clip-path: url(#clippath-24);
      }

      .st80 {
        clip-path: url(#clippath-25);
      }

      .st81 {
        clip-path: url(#clippath-69);
      }

      .st82 {
        clip-path: url(#clippath-41);
      }

      .st83 {
        clip-path: url(#clippath-42);
      }

      .st84 {
        clip-path: url(#clippath-43);
      }

      .st85 {
        clip-path: url(#clippath-44);
      }

      .st86 {
        clip-path: url(#clippath-45);
      }

      .st87 {
        clip-path: url(#clippath-49);
      }

      .st88 {
        clip-path: url(#clippath-40);
      }

      .st89 {
        clip-path: url(#clippath-46);
      }

      .st90 {
        clip-path: url(#clippath-47);
      }

      .st91 {
        clip-path: url(#clippath-48);
      }

      .st11, .st16, .st20 {
        stroke: #e74c3c;
      }

      .st12, .st14, .st17, .st22 {
        stroke: #3498db;
      }

      .st92 {
        clip-path: url(#clippath-1);
      }

      .st93 {
        clip-path: url(#clippath-3);
      }

      .st94 {
        clip-path: url(#clippath-4);
      }

      .st95 {
        clip-path: url(#clippath-2);
      }

      .st96 {
        clip-path: url(#clippath-7);
      }

      .st97 {
        clip-path: url(#clippath-6);
      }

      .st98 {
        clip-path: url(#clippath-9);
      }

      .st99 {
        clip-path: url(#clippath-8);
      }

      .st100 {
        clip-path: url(#clippath-5);
      }

      .st101 {
        fill: #e74c3c;
      }

      .st102 {
        fill: #3498db;
      }

      .st103 {
        clip-path: url(#clippath);
      }
    </style>
    <clipPath id="clippath">
      <rect class="st0" x="44.75" y="53.52" width="414.16" height="261.64"/>
    </clipPath>
    <clipPath id="clippath-1">
      <rect class="st0" x="44.75" y="53.52" width="414.16" height="261.64"/>
    </clipPath>
    <clipPath id="clippath-2">
      <rect class="st0" x="44.75" y="53.52" width="414.16" height="261.64"/>
    </clipPath>
    <clipPath id="clippath-3">
      <rect class="st0" x="44.75" y="53.52" width="414.16" height="261.64"/>
    </clipPath>
    <clipPath id="clippath-4">
      <rect class="st0" x="44.75" y="53.52" width="414.16" height="261.64"/>
    </clipPath>
    <clipPath id="clippath-5">
      <rect class="st0" x="44.75" y="53.52" width="414.16" height="261.64"/>
    </clipPath>
    <clipPath id="clippath-6">
      <rect class="st0" x="234.62" y="330.93" width="34.79" height="18.45"/>
    </clipPath>
    <clipPath id="clippath-7">
      <rect class="st0" x="44.75" y="53.52" width="414.16" height="261.64"/>
    </clipPath>
    <clipPath id="clippath-8">
      <rect class="st0" x="44.75" y="53.52" width="414.16" height="261.64"/>
    </clipPath>
    <clipPath id="clippath-9">
      <rect class="st0" x="44.75" y="53.52" width="414.16" height="261.64"/>
    </clipPath>
    <clipPath id="clippath-10">
      <rect class="st0" x="44.75" y="53.52" width="414.16" height="261.64"/>
    </clipPath>
    <clipPath id="clippath-11">
      <rect class="st0" x="44.75" y="53.52" width="414.16" height="261.64"/>
    </clipPath>
    <clipPath id="clippath-12">
      <rect class="st0" x="44.75" y="53.52" width="414.16" height="261.64"/>
    </clipPath>
    <clipPath id="clippath-13">
      <rect class="st0" x="44.75" y="53.52" width="414.16" height="261.64"/>
    </clipPath>
    <clipPath id="clippath-14">
      <rect class="st0" x="44.75" y="53.52" width="414.16" height="261.64"/>
    </clipPath>
    <clipPath id="clippath-15">
      <rect class="st0" x="44.75" y="53.52" width="414.16" height="261.64"/>
    </clipPath>
    <clipPath id="clippath-16">
      <rect class="st0" x="44.75" y="53.52" width="414.16" height="261.64"/>
    </clipPath>
    <clipPath id="clippath-17">
      <rect class="st0" x="44.75" y="53.52" width="414.16" height="261.64"/>
    </clipPath>
    <clipPath id="clippath-18">
      <rect class="st0" x="44.75" y="53.52" width="414.16" height="261.64"/>
    </clipPath>
    <clipPath id="clippath-19">
      <rect class="st0" x="44.75" y="53.52" width="414.16" height="261.64"/>
    </clipPath>
    <clipPath id="clippath-20">
      <rect class="st0" x="44.75" y="53.52" width="414.16" height="261.64"/>
    </clipPath>
    <clipPath id="clippath-21">
      <rect class="st0" x="44.75" y="53.52" width="414.16" height="261.64"/>
    </clipPath>
    <clipPath id="clippath-22">
      <rect class="st0" x="55.07" y="69.29" width="17" height="17"/>
    </clipPath>
    <clipPath id="clippath-23">
      <rect class="st0" x="78.6" y="63.96" width="17" height="17"/>
    </clipPath>
    <clipPath id="clippath-24">
      <rect class="st0" x="117.82" y="69.09" width="17" height="17"/>
    </clipPath>
    <clipPath id="clippath-25">
      <rect class="st0" x="196.26" y="65.63" width="17" height="17"/>
    </clipPath>
    <clipPath id="clippath-26">
      <rect class="st0" x="431.58" y="69.44" width="17" height="17"/>
    </clipPath>
    <clipPath id="clippath-27">
      <rect class="st0" x="44.75" y="53.52" width="414.16" height="261.64"/>
    </clipPath>
    <clipPath id="clippath-28">
      <rect class="st0" x="55.07" y="63.94" width="17" height="17"/>
    </clipPath>
    <clipPath id="clippath-29">
      <rect class="st0" x="78.6" y="62.15" width="17" height="17"/>
    </clipPath>
    <clipPath id="clippath-30">
      <rect class="st0" x="117.82" y="61.6" width="17" height="17"/>
    </clipPath>
    <clipPath id="clippath-31">
      <rect class="st0" x="196.26" y="63.09" width="17" height="17"/>
    </clipPath>
    <clipPath id="clippath-32">
      <rect class="st0" x="431.58" y="63.14" width="17" height="17"/>
    </clipPath>
    <clipPath id="clippath-33">
      <rect class="st0" x="44.75" y="53.52" width="414.16" height="261.64"/>
    </clipPath>
    <clipPath id="clippath-34">
      <rect class="st0" x="53.62" y="283.2" width="19.9" height="19.9"/>
    </clipPath>
    <clipPath id="clippath-35">
      <rect class="st0" x="77.15" y="275.8" width="19.9" height="19.9"/>
    </clipPath>
    <clipPath id="clippath-36">
      <rect class="st0" x="116.37" y="279.58" width="19.9" height="19.9"/>
    </clipPath>
    <clipPath id="clippath-37">
      <rect class="st0" x="194.81" y="279.24" width="19.9" height="19.9"/>
    </clipPath>
    <clipPath id="clippath-38">
      <rect class="st0" x="430.13" y="279.13" width="19.9" height="19.9"/>
    </clipPath>
    <clipPath id="clippath-39">
      <rect class="st0" x="507.35" y="53.52" width="414.16" height="261.64"/>
    </clipPath>
    <clipPath id="clippath-40">
      <rect class="st0" x="507.35" y="53.52" width="414.16" height="261.64"/>
    </clipPath>
    <clipPath id="clippath-41">
      <rect class="st0" x="507.35" y="53.52" width="414.16" height="261.64"/>
    </clipPath>
    <clipPath id="clippath-42">
      <rect class="st0" x="507.35" y="53.52" width="414.16" height="261.64"/>
    </clipPath>
    <clipPath id="clippath-43">
      <rect class="st0" x="507.35" y="53.52" width="414.16" height="261.64"/>
    </clipPath>
    <clipPath id="clippath-44">
      <rect class="st0" x="507.35" y="53.52" width="414.16" height="261.64"/>
    </clipPath>
    <clipPath id="clippath-45">
      <rect class="st0" x="507.35" y="53.52" width="414.16" height="261.64"/>
    </clipPath>
    <clipPath id="clippath-46">
      <rect class="st0" x="507.35" y="53.52" width="414.16" height="261.64"/>
    </clipPath>
    <clipPath id="clippath-47">
      <rect class="st0" x="697.22" y="330.93" width="34.79" height="18.45"/>
    </clipPath>
    <clipPath id="clippath-48">
      <rect class="st0" x="507.35" y="53.52" width="414.16" height="261.64"/>
    </clipPath>
    <clipPath id="clippath-49">
      <rect class="st0" x="507.35" y="53.52" width="414.16" height="261.64"/>
    </clipPath>
    <clipPath id="clippath-50">
      <rect class="st0" x="507.35" y="53.52" width="414.16" height="261.64"/>
    </clipPath>
    <clipPath id="clippath-51">
      <rect class="st0" x="507.35" y="53.52" width="414.16" height="261.64"/>
    </clipPath>
    <clipPath id="clippath-52">
      <rect class="st0" x="507.35" y="53.52" width="414.16" height="261.64"/>
    </clipPath>
    <clipPath id="clippath-53">
      <rect class="st0" x="507.35" y="53.52" width="414.16" height="261.64"/>
    </clipPath>
    <clipPath id="clippath-54">
      <rect class="st0" x="507.35" y="53.52" width="414.16" height="261.64"/>
    </clipPath>
    <clipPath id="clippath-55">
      <rect class="st0" x="507.35" y="53.52" width="414.16" height="261.64"/>
    </clipPath>
    <clipPath id="clippath-56">
      <rect class="st0" x="507.35" y="53.52" width="414.16" height="261.64"/>
    </clipPath>
    <clipPath id="clippath-57">
      <rect class="st0" x="507.35" y="53.52" width="414.16" height="261.64"/>
    </clipPath>
    <clipPath id="clippath-58">
      <rect class="st0" x="507.35" y="53.52" width="414.16" height="261.64"/>
    </clipPath>
    <clipPath id="clippath-59">
      <rect class="st0" x="507.35" y="53.52" width="414.16" height="261.64"/>
    </clipPath>
    <clipPath id="clippath-60">
      <rect class="st0" x="517.67" y="63.46" width="17" height="17"/>
    </clipPath>
    <clipPath id="clippath-61">
      <rect class="st0" x="542.77" y="64.15" width="17" height="17"/>
    </clipPath>
    <clipPath id="clippath-62">
      <rect class="st0" x="592.97" y="61.53" width="17" height="17"/>
    </clipPath>
    <clipPath id="clippath-63">
      <rect class="st0" x="693.38" y="59.48" width="17" height="17"/>
    </clipPath>
    <clipPath id="clippath-64">
      <rect class="st0" x="894.18" y="58.46" width="17" height="17"/>
    </clipPath>
    <clipPath id="clippath-65">
      <rect class="st0" x="507.35" y="53.52" width="414.16" height="261.64"/>
    </clipPath>
    <clipPath id="clippath-66">
      <rect class="st0" x="517.67" y="248.06" width="17" height="17"/>
    </clipPath>
    <clipPath id="clippath-67">
      <rect class="st0" x="542.77" y="223.84" width="17" height="17"/>
    </clipPath>
    <clipPath id="clippath-68">
      <rect class="st0" x="592.97" y="216.77" width="17" height="17"/>
    </clipPath>
    <clipPath id="clippath-69">
      <rect class="st0" x="693.38" y="209.84" width="17" height="17"/>
    </clipPath>
    <clipPath id="clippath-70">
      <rect class="st0" x="894.18" y="216.54" width="17" height="17"/>
    </clipPath>
    <clipPath id="clippath-71">
      <rect class="st0" x="332.94" y="3.19" width="34.79" height="18.45"/>
    </clipPath>
    <clipPath id="clippath-72">
      <rect class="st0" x="440.35" y="1.05" width="23.92" height="22.05"/>
    </clipPath>
  </defs>
  <rect class="st27" x="44.75" y="53.52" width="414.16" height="261.64"/>
  <g class="st103">
    <line class="st1" x1="47.88" y1="315.16" x2="47.88" y2="53.52"/>
  </g>
  <line x1="47.88" y1="315.16" x2="47.88" y2="318.66"/>
  <line class="st9" x1="47.88" y1="315.16" x2="47.88" y2="318.66"/>
  <path d="M47.88,322.33c.81,0,1.43.33,1.87.97.43.65.65,1.59.65,2.81s-.22,2.17-.65,2.81c-.44.64-1.06.96-1.88.96s-1.44-.32-1.87-.96-.64-1.58-.64-2.81.21-2.16.64-2.81c.43-.64,1.06-.97,1.88-.97ZM47.88,323.11c-.51,0-.89.25-1.15.75-.26.5-.38,1.25-.38,2.25s.12,1.75.38,2.25c.26.5.64.75,1.15.75s.89-.25,1.15-.75c.25-.5.38-1.25.38-2.25s-.13-1.75-.38-2.25c-.26-.5-.64-.75-1.15-.75Z"/>
  <g class="st92">
    <line class="st1" x1="126.32" y1="315.16" x2="126.32" y2="53.52"/>
  </g>
  <line x1="126.32" y1="315.16" x2="126.32" y2="318.66"/>
  <line class="st9" x1="126.32" y1="315.16" x2="126.32" y2="318.66"/>
  <polygon points="124.38 328.92 125.99 328.92 125.99 323.36 124.24 323.71 124.24 322.81 125.98 322.46 126.97 322.46 126.97 328.92 128.58 328.92 128.58 329.75 124.38 329.75 124.38 328.92"/>
  <g class="st95">
    <line class="st1" x1="204.76" y1="315.16" x2="204.76" y2="53.52"/>
  </g>
  <line x1="204.76" y1="315.16" x2="204.76" y2="318.66"/>
  <line class="st9" x1="204.76" y1="315.16" x2="204.76" y2="318.66"/>
  <path d="M203.5,328.92h3.44v.83h-4.63v-.83c.37-.38.88-.9,1.53-1.56.64-.65,1.05-1.07,1.22-1.26.32-.35.54-.65.66-.9.12-.24.19-.49.19-.73,0-.38-.14-.7-.41-.94-.27-.24-.62-.37-1.06-.37-.31,0-.64.06-.98.16-.34.11-.71.27-1.1.49v-1c.4-.16.77-.28,1.11-.36.34-.08.66-.12.95-.12.75,0,1.35.19,1.8.57.45.38.68.88.68,1.51,0,.3-.06.59-.17.85-.11.27-.31.59-.61.95-.08.1-.34.37-.78.82-.44.45-1.05,1.08-1.84,1.89Z"/>
  <g class="st93">
    <line class="st1" x1="283.2" y1="315.16" x2="283.2" y2="53.52"/>
  </g>
  <line x1="283.2" y1="315.16" x2="283.2" y2="318.66"/>
  <line class="st9" x1="283.2" y1="315.16" x2="283.2" y2="318.66"/>
  <path d="M284.08,325.82c.47.1.84.31,1.1.63.26.32.4.72.4,1.18,0,.72-.25,1.28-.74,1.67-.5.39-1.2.58-2.11.58-.31,0-.63-.03-.95-.09-.32-.05-.66-.14-1-.26v-.95c.27.16.57.28.9.36.32.08.66.12,1.02.12.62,0,1.09-.12,1.41-.36.32-.24.49-.6.49-1.07,0-.42-.15-.76-.45-1-.3-.24-.72-.37-1.26-.37h-.85v-.81h.89c.48,0,.85-.09,1.11-.29.26-.19.39-.47.39-.84s-.14-.66-.4-.86c-.27-.2-.65-.3-1.14-.3-.27,0-.56.03-.87.09s-.65.15-1.02.27v-.88c.37-.1.72-.18,1.05-.23.32-.05.63-.08.93-.08.74,0,1.33.17,1.77.51s.66.8.66,1.38c0,.4-.12.74-.35,1.02-.23.28-.56.48-.98.58Z"/>
  <g class="st94">
    <line class="st1" x1="361.64" y1="315.16" x2="361.64" y2="53.52"/>
  </g>
  <line x1="361.64" y1="315.16" x2="361.64" y2="318.66"/>
  <line class="st9" x1="361.64" y1="315.16" x2="361.64" y2="318.66"/>
  <path d="M361.98,322.46h1.24v4.75h1.04v.82h-1.04v1.72h-.98v-1.72h-3.29v-.95l3.03-4.62ZM362.24,323.32l-2.49,3.89h2.49v-3.89Z"/>
  <g class="st100">
    <line class="st1" x1="440.08" y1="315.16" x2="440.08" y2="53.52"/>
  </g>
  <line x1="440.08" y1="315.16" x2="440.08" y2="318.66"/>
  <line class="st9" x1="440.08" y1="315.16" x2="440.08" y2="318.66"/>
  <path d="M437.98,322.46h3.87v.83h-2.97v1.79c.14-.05.29-.09.43-.11.14-.02.29-.04.43-.04.81,0,1.45.23,1.93.67.48.45.72,1.05.72,1.81s-.25,1.4-.74,1.83-1.18.64-2.06.64c-.31,0-.62-.03-.94-.07-.32-.05-.64-.12-.98-.23v-.99c.29.16.59.28.91.36.31.08.64.11.99.11.56,0,1.01-.14,1.34-.44.32-.3.49-.7.49-1.21s-.17-.9-.49-1.2c-.33-.3-.78-.45-1.34-.45-.26,0-.53.03-.79.09-.26.06-.53.15-.8.27v-3.66Z"/>
  <g class="st97">
    <path d="M252.1,343.52c.1.21.39.31.86.31h.56l-.2.99h-.7c-.77,0-1.29-.19-1.55-.61-.27-.42-.31-1.07-.13-1.96l.65-3.37h-2.68l.23-1.17h6.55l-.22,1.17h-2.69l-.68,3.43c-.13.62-.13,1.03-.01,1.21Z"/>
  </g>
  <g class="st96">
    <line class="st1" x1="44.75" y1="292.18" x2="458.91" y2="292.18"/>
  </g>
  <line x1="44.75" y1="292.18" x2="41.25" y2="292.18"/>
  <line class="st9" x1="44.75" y1="292.18" x2="41.25" y2="292.18"/>
  <path d="M25.02,288.55c.81,0,1.43.33,1.87.97.43.65.65,1.59.65,2.81s-.22,2.17-.65,2.81c-.44.64-1.06.96-1.88.96s-1.44-.32-1.87-.96c-.43-.64-.64-1.58-.64-2.81s.21-2.16.64-2.81c.43-.64,1.06-.97,1.88-.97ZM25.02,289.33c-.51,0-.89.25-1.15.75s-.38,1.25-.38,2.25.12,1.75.38,2.25.64.75,1.15.75.89-.25,1.15-.75c.25-.5.38-1.25.38-2.25s-.13-1.75-.38-2.25c-.26-.5-.64-.75-1.15-.75Z"/>
  <rect x="29.27" y="294.73" width="1.03" height="1.24"/>
  <path d="M32.46,288.68h3.87v.83h-2.97v1.79c.14-.05.29-.09.43-.11.14-.02.29-.04.43-.04.81,0,1.45.23,1.93.67.48.45.72,1.05.72,1.81s-.25,1.4-.74,1.83c-.49.43-1.18.64-2.06.64-.31,0-.62-.03-.94-.07-.32-.05-.64-.12-.98-.23v-.99c.29.16.59.28.91.36.31.08.64.11.99.11.56,0,1.01-.14,1.34-.44.32-.3.49-.7.49-1.21s-.17-.9-.49-1.2c-.33-.3-.78-.45-1.34-.45-.26,0-.53.03-.79.09-.26.06-.53.15-.8.27v-3.66Z"/>
  <g class="st99">
    <line class="st1" x1="44.75" y1="243.57" x2="458.91" y2="243.57"/>
  </g>
  <line x1="44.75" y1="243.57" x2="41.25" y2="243.57"/>
  <line class="st9" x1="44.75" y1="243.57" x2="41.25" y2="243.57"/>
  <path d="M25.02,239.95c.81,0,1.43.33,1.87.97.43.65.65,1.59.65,2.81s-.22,2.17-.65,2.81c-.44.64-1.06.96-1.88.96s-1.44-.32-1.87-.96c-.43-.64-.64-1.58-.64-2.81s.21-2.16.64-2.81c.43-.64,1.06-.97,1.88-.97ZM25.02,240.73c-.51,0-.89.25-1.15.75s-.38,1.25-.38,2.25.12,1.75.38,2.25.64.75,1.15.75.89-.25,1.15-.75c.25-.5.38-1.25.38-2.25s-.13-1.75-.38-2.25c-.26-.5-.64-.75-1.15-.75Z"/>
  <rect x="29.27" y="246.13" width="1.03" height="1.24"/>
  <path d="M36.64,240.24v.9c-.25-.12-.5-.21-.75-.27-.26-.06-.51-.09-.75-.09-.66,0-1.16.22-1.5.66-.34.44-.54,1.11-.58,1.99.19-.28.43-.5.72-.65.29-.15.61-.23.96-.23.73,0,1.31.23,1.73.67s.64,1.05.64,1.81-.23,1.35-.67,1.8c-.44.45-1.03.67-1.76.67-.84,0-1.49-.32-1.93-.96-.45-.64-.67-1.58-.67-2.81,0-1.15.27-2.07.82-2.75.54-.68,1.28-1.03,2.2-1.03.24,0,.49.03.75.07.25.05.51.12.79.22ZM34.68,243.33c-.44,0-.79.16-1.05.46-.26.3-.39.72-.39,1.24s.13.95.39,1.25c.26.3.61.45,1.05.45s.79-.15,1.05-.45c.26-.3.39-.72.39-1.25s-.13-.94-.39-1.24c-.26-.3-.61-.46-1.05-.46Z"/>
  <g class="st98">
    <line class="st1" x1="44.75" y1="194.96" x2="458.91" y2="194.96"/>
  </g>
  <line x1="44.75" y1="194.96" x2="41.25" y2="194.96"/>
  <line class="st9" x1="44.75" y1="194.96" x2="41.25" y2="194.96"/>
  <path d="M25.02,191.34c.81,0,1.43.33,1.87.97.43.65.65,1.59.65,2.81s-.22,2.17-.65,2.81c-.44.64-1.06.96-1.88.96s-1.44-.32-1.87-.96c-.43-.64-.64-1.58-.64-2.81s.21-2.16.64-2.81c.43-.64,1.06-.97,1.88-.97ZM25.02,192.12c-.51,0-.89.25-1.15.75s-.38,1.25-.38,2.25.12,1.75.38,2.25.64.75,1.15.75.89-.25,1.15-.75c.25-.5.38-1.25.38-2.25s-.13-1.75-.38-2.25c-.26-.5-.64-.75-1.15-.75Z"/>
  <rect x="29.27" y="197.52" width="1.03" height="1.24"/>
  <polygon points="32.2 191.47 36.89 191.47 36.89 191.89 34.24 198.76 33.21 198.76 35.7 192.3 32.2 192.3 32.2 191.47"/>
  <g class="st34">
    <line class="st1" x1="44.75" y1="146.36" x2="458.91" y2="146.36"/>
  </g>
  <line x1="44.75" y1="146.36" x2="41.25" y2="146.36"/>
  <line class="st9" x1="44.75" y1="146.36" x2="41.25" y2="146.36"/>
  <path d="M25.02,142.73c.81,0,1.43.33,1.87.97.43.65.65,1.59.65,2.81s-.22,2.17-.65,2.81c-.44.64-1.06.96-1.88.96s-1.44-.32-1.87-.96c-.43-.64-.64-1.58-.64-2.81s.21-2.16.64-2.81c.43-.64,1.06-.97,1.88-.97ZM25.02,143.51c-.51,0-.89.25-1.15.75s-.38,1.25-.38,2.25.12,1.75.38,2.25.64.75,1.15.75.89-.25,1.15-.75c.25-.5.38-1.25.38-2.25s-.13-1.75-.38-2.25c-.26-.5-.64-.75-1.15-.75Z"/>
  <rect x="29.27" y="148.91" width="1.03" height="1.24"/>
  <path d="M33.21,144.71c0,.38.11.68.35.89.24.21.57.31,1,.31s.75-.1.99-.31c.24-.21.36-.51.36-.89s-.12-.67-.36-.88c-.24-.21-.57-.32-.99-.32s-.76.11-1,.32c-.24.21-.35.5-.35.88ZM33.57,146.27c-.42-.1-.75-.3-.99-.59-.24-.29-.35-.64-.35-1.06,0-.58.2-1.04.62-1.38.41-.34.98-.51,1.71-.51s1.29.17,1.71.51c.41.34.62.8.62,1.38,0,.42-.12.77-.36,1.06-.24.29-.56.49-.98.59.47.11.84.33,1.11.65.26.32.4.72.4,1.18,0,.71-.22,1.25-.65,1.62-.44.38-1.06.56-1.86.56s-1.42-.18-1.85-.56c-.43-.37-.64-.91-.64-1.62,0-.46.13-.86.4-1.18.26-.32.63-.54,1.11-.65ZM34.56,146.69c-.47,0-.84.13-1.11.38s-.4.59-.4,1.03.13.79.4,1.04.64.37,1.11.37.83-.12,1.1-.38c.27-.25.41-.59.41-1.03s-.14-.78-.4-1.03c-.27-.25-.64-.38-1.11-.38Z"/>
  <g class="st31">
    <line class="st1" x1="44.75" y1="97.75" x2="458.91" y2="97.75"/>
  </g>
  <line x1="44.75" y1="97.75" x2="41.25" y2="97.75"/>
  <line class="st9" x1="44.75" y1="97.75" x2="41.25" y2="97.75"/>
  <path d="M25.02,94.13c.81,0,1.43.33,1.87.97.43.65.65,1.59.65,2.81s-.22,2.17-.65,2.81c-.44.64-1.06.96-1.88.96s-1.44-.32-1.87-.96c-.43-.64-.64-1.58-.64-2.81s.21-2.16.64-2.81c.43-.64,1.06-.97,1.88-.97ZM25.02,94.91c-.51,0-.89.25-1.15.75s-.38,1.25-.38,2.25.12,1.75.38,2.25.64.75,1.15.75.89-.25,1.15-.75c.25-.5.38-1.25.38-2.25s-.13-1.75-.38-2.25c-.26-.5-.64-.75-1.15-.75Z"/>
  <rect x="29.27" y="100.31" width="1.03" height="1.24"/>
  <path d="M34.44,98.31c.44,0,.79-.15,1.05-.45s.39-.72.39-1.25-.13-.94-.39-1.24c-.26-.3-.61-.46-1.05-.46s-.79.16-1.05.46c-.26.3-.39.72-.39,1.24s.13.95.39,1.25c.26.3.61.45,1.05.45ZM32.48,101.4v-.9c.24.12.49.21.75.27.25.06.5.09.75.09.64,0,1.14-.21,1.48-.65s.54-1.1.6-2c-.2.28-.44.5-.72.65-.29.15-.61.22-.96.22-.74,0-1.32-.22-1.74-.66-.42-.44-.63-1.04-.63-1.81s.22-1.34.66-1.8c.44-.45,1.03-.68,1.77-.68.84,0,1.49.33,1.93.97.44.65.67,1.59.67,2.81s-.28,2.07-.82,2.75c-.55.68-1.28,1.02-2.2,1.02-.25,0-.5-.03-.75-.07-.26-.04-.52-.11-.79-.21Z"/>
  <polygon points="7.54 251.64 7.54 250.17 14.25 246.62 7.54 246.62 7.54 245.56 15.56 245.56 15.56 247.03 8.85 250.58 15.56 250.58 15.56 251.64 7.54 251.64"/>
  <path d="M9.4,241.12c0-.86.29-1.53.84-2.02.56-.48,1.33-.74,2.32-.74s1.76.25,2.31.74c.56.5.84,1.17.84,2.02s-.27,1.55-.84,2.03c-.55.48-1.32.73-2.31.73s-1.76-.24-2.32-.73c-.55-.48-.84-1.17-.84-2.03ZM10.24,241.12c0,.53.21.95.63,1.25s.98.46,1.69.46,1.29-.14,1.7-.45.62-.73.62-1.26-.2-.95-.62-1.25-.98-.46-1.7-.46-1.28.15-1.69.46-.63.73-.63,1.25Z"/>
  <path d="M10.47,233.23c-.07.11-.11.23-.14.36-.02.13-.04.27-.04.43,0,.56.19.99.55,1.29.36.31.88.45,1.56.45h3.17v.99h-6.02v-.99h.94c-.36-.2-.64-.47-.81-.8-.18-.33-.26-.74-.26-1.22,0-.07.01-.14.01-.23.01-.08.02-.17.04-.28h1.01Z"/>
  <path d="M10.7,227.7c-.44-.24-.76-.54-.98-.88-.21-.34-.32-.75-.32-1.22,0-.62.22-1.1.66-1.44.44-.34,1.07-.52,1.87-.52h3.63v.99h-3.6c-.57,0-1,.11-1.29.31-.28.21-.42.52-.42.93,0,.52.18.92.52,1.22.34.3.8.44,1.39.44h3.4v.99h-3.6c-.57,0-1,.11-1.29.31-.28.21-.42.53-.42.95,0,.51.18.91.52,1.21.34.3.8.44,1.39.44h3.4v.99h-6.02v-.99h.94c-.36-.22-.64-.5-.81-.81-.18-.31-.26-.68-.26-1.12s.11-.8.33-1.11c.22-.31.55-.53.97-.68Z"/>
  <path d="M12.13,216.97h3.43v.99h-.91c.37.23.64.52.8.85s.25.75.25,1.23c0,.62-.16,1.11-.51,1.47-.34.36-.8.54-1.39.54-.67,0-1.18-.22-1.53-.68-.34-.45-.52-1.12-.52-2.02v-1.39h-.1c-.45,0-.8.15-1.06.45-.24.3-.37.71-.37,1.25,0,.35.04.68.13,1.01s.21.64.36.93h-.91c-.13-.35-.24-.7-.31-1.04s-.11-.67-.11-1c0-.87.23-1.52.68-1.95.45-.43,1.13-.65,2.05-.65ZM12.53,218.93c0,.8.1,1.35.28,1.66.19.31.49.46.93.46.35,0,.64-.11.84-.34.21-.23.31-.55.31-.95,0-.55-.19-.99-.58-1.32-.39-.33-.9-.49-1.55-.49h-.22v.98Z"/>
  <rect x="7.2" y="213.94" width="8.36" height=".99"/>
  <path d="M7.2,211.87v-.99h1.25v.99h-1.25ZM9.54,211.87v-.99h6.02v.99h-6.02Z"/>
  <polygon points="9.54 209.24 9.54 204.55 10.44 204.55 14.77 208.26 14.77 204.55 15.56 204.55 15.56 209.38 14.66 209.38 10.33 205.66 10.33 209.24 9.54 209.24"/>
  <path d="M12.02,198.88c-.54.01-.97.16-1.3.45-.32.3-.48.69-.48,1.18,0,.55.16.99.47,1.32.31.33.75.53,1.31.57v-3.52ZM12.3,197.89h.48v4.54c.68-.04,1.21-.24,1.56-.62.35-.36.53-.87.53-1.53,0-.37-.04-.75-.13-1.1s-.23-.71-.43-1.07h.94c.15.35.27.71.34,1.09.07.37.11.76.11,1.13,0,.97-.27,1.73-.82,2.29-.55.56-1.31.84-2.27.84s-1.76-.26-2.34-.79c-.57-.53-.87-1.25-.87-2.16,0-.81.26-1.45.78-1.93.53-.46,1.23-.7,2.12-.7Z"/>
  <path d="M12.56,195.68c.73,0,1.3-.14,1.72-.44.42-.3.62-.7.62-1.23s-.2-.93-.62-1.24c-.42-.3-.99-.45-1.72-.45s-1.29.15-1.7.45c-.42.31-.63.71-.63,1.24s.21.93.63,1.23c.42.3.98.44,1.7.44ZM10.46,192.31h-3.26v-.99h8.36v.99h-.9c.36.21.63.47.79.79s.25.69.25,1.13c0,.73-.29,1.32-.86,1.78-.57.46-1.34.68-2.29.68s-1.7-.22-2.29-.68c-.57-.46-.87-1.06-.87-1.78,0-.44.09-.81.26-1.13.18-.32.44-.58.79-.79Z"/>
  <path d="M7.8,180.94h1.06c-.2.42-.34.8-.44,1.17-.09.37-.14.73-.14,1.06,0,.59.12,1.06.34,1.38.23.32.56.47.98.47.35,0,.63-.1.8-.32.19-.21.33-.62.44-1.21l.13-.66c.15-.8.43-1.4.81-1.78.4-.39.91-.58,1.56-.58.78,0,1.36.26,1.76.78.4.53.59,1.29.59,2.29,0,.39-.04.79-.12,1.22-.08.43-.2.87-.37,1.32h-1.12c.25-.44.44-.87.56-1.29.13-.42.19-.84.19-1.25,0-.62-.12-1.09-.36-1.43-.24-.33-.58-.51-1.05-.51-.4,0-.7.12-.92.36s-.38.64-.49,1.19l-.13.66c-.15.81-.41,1.4-.76,1.76-.34.36-.81.54-1.43.54-.7,0-1.27-.24-1.67-.75-.41-.49-.62-1.19-.62-2.07,0-.37.03-.75.1-1.14.07-.38.18-.78.31-1.2Z"/>
  <path d="M9.77,174.47h.92c-.15.29-.26.56-.34.85-.08.29-.12.56-.12.85,0,.64.21,1.14.62,1.5.41.35.98.53,1.7.53s1.31-.18,1.72-.53c.41-.35.6-.86.6-1.5,0-.29-.03-.56-.11-.85-.08-.29-.2-.56-.35-.85h.91c.13.29.23.57.29.86.05.3.09.62.09.95,0,.9-.27,1.63-.85,2.16-.56.54-1.33.8-2.3.8s-1.75-.26-2.31-.8c-.56-.54-.85-1.28-.85-2.22,0-.31.03-.6.1-.89.07-.29.15-.57.27-.85Z"/>
  <path d="M9.4,170.42c0-.86.29-1.53.84-2.02.56-.48,1.33-.74,2.32-.74s1.76.25,2.31.74c.56.49.84,1.17.84,2.02s-.27,1.55-.84,2.04c-.55.48-1.32.73-2.31.73s-1.76-.24-2.32-.73c-.55-.48-.84-1.17-.84-2.04ZM10.24,170.42c0,.53.21.95.63,1.25s.98.46,1.69.46,1.29-.14,1.7-.45.62-.73.62-1.26-.2-.95-.62-1.25-.98-.46-1.7-.46-1.28.15-1.69.46-.63.73-.63,1.25Z"/>
  <path d="M10.47,162.54c-.07.11-.11.23-.14.36-.02.13-.04.28-.04.43,0,.56.19.99.55,1.29.36.31.88.45,1.56.45h3.17v.99h-6.02v-.99h.94c-.36-.2-.64-.47-.81-.8-.18-.33-.26-.74-.26-1.22,0-.07.01-.14.01-.23.01-.08.02-.16.04-.27h1.01Z"/>
  <path d="M12.02,157.58c-.54.01-.97.16-1.3.45-.32.3-.48.69-.48,1.18,0,.55.16.99.47,1.32.31.33.75.53,1.31.57v-3.52ZM12.3,156.59h.48v4.54c.68-.04,1.21-.24,1.56-.62.35-.36.53-.87.53-1.53,0-.37-.04-.75-.13-1.1s-.23-.71-.43-1.07h.94c.15.35.27.71.34,1.09.07.37.11.76.11,1.13,0,.97-.27,1.73-.82,2.29-.55.56-1.31.84-2.27.84s-1.76-.26-2.34-.79c-.57-.53-.87-1.25-.87-2.16,0-.81.26-1.45.78-1.93.53-.46,1.23-.7,2.12-.7Z"/>
  <g class="st38">
    <line class="st20" x1="63.57" y1="87.23" x2="63.57" y2="68.35"/>
    <line class="st20" x1="87.1" y1="78.34" x2="87.1" y2="66.59"/>
    <line class="st20" x1="126.32" y1="83.17" x2="126.32" y2="72.02"/>
    <line class="st20" x1="204.76" y1="82.19" x2="204.76" y2="66.06"/>
    <line class="st20" x1="440.08" y1="84.19" x2="440.08" y2="71.7"/>
  </g>
  <g class="st36">
    <line class="st101" x1="66.57" y1="87.23" x2="60.57" y2="87.23"/>
    <line class="st11" x1="66.57" y1="87.23" x2="60.57" y2="87.23"/>
    <line class="st101" x1="90.1" y1="78.34" x2="84.1" y2="78.34"/>
    <line class="st11" x1="90.1" y1="78.34" x2="84.1" y2="78.34"/>
    <line class="st101" x1="129.32" y1="83.17" x2="123.32" y2="83.17"/>
    <line class="st11" x1="129.32" y1="83.17" x2="123.32" y2="83.17"/>
    <line class="st101" x1="207.76" y1="82.19" x2="201.76" y2="82.19"/>
    <line class="st11" x1="207.76" y1="82.19" x2="201.76" y2="82.19"/>
    <line class="st101" x1="443.08" y1="84.19" x2="437.08" y2="84.19"/>
    <line class="st11" x1="443.08" y1="84.19" x2="437.08" y2="84.19"/>
  </g>
  <g class="st37">
    <line class="st101" x1="66.57" y1="68.35" x2="60.57" y2="68.35"/>
    <line class="st11" x1="66.57" y1="68.35" x2="60.57" y2="68.35"/>
    <line class="st101" x1="90.1" y1="66.59" x2="84.1" y2="66.59"/>
    <line class="st11" x1="90.1" y1="66.59" x2="84.1" y2="66.59"/>
    <line class="st101" x1="129.32" y1="72.02" x2="123.32" y2="72.02"/>
    <line class="st11" x1="129.32" y1="72.02" x2="123.32" y2="72.02"/>
    <line class="st101" x1="207.76" y1="66.06" x2="201.76" y2="66.06"/>
    <line class="st11" x1="207.76" y1="66.06" x2="201.76" y2="66.06"/>
    <line class="st101" x1="443.08" y1="71.7" x2="437.08" y2="71.7"/>
    <line class="st11" x1="443.08" y1="71.7" x2="437.08" y2="71.7"/>
  </g>
  <g class="st35">
    <line class="st14" x1="63.57" y1="75.19" x2="63.57" y2="69.69"/>
    <line class="st14" x1="87.1" y1="73.91" x2="87.1" y2="67.38"/>
    <line class="st14" x1="126.32" y1="74.79" x2="126.32" y2="65.41"/>
    <line class="st14" x1="204.76" y1="72.86" x2="204.76" y2="70.31"/>
    <line class="st14" x1="440.08" y1="72.77" x2="440.08" y2="70.51"/>
  </g>
  <g class="st32">
    <line class="st102" x1="66.57" y1="75.19" x2="60.57" y2="75.19"/>
    <line class="st17" x1="66.57" y1="75.19" x2="60.57" y2="75.19"/>
    <line class="st102" x1="90.1" y1="73.91" x2="84.1" y2="73.91"/>
    <line class="st17" x1="90.1" y1="73.91" x2="84.1" y2="73.91"/>
    <line class="st102" x1="129.32" y1="74.79" x2="123.32" y2="74.79"/>
    <line class="st17" x1="129.32" y1="74.79" x2="123.32" y2="74.79"/>
    <line class="st102" x1="207.76" y1="72.86" x2="201.76" y2="72.86"/>
    <line class="st17" x1="207.76" y1="72.86" x2="201.76" y2="72.86"/>
    <line class="st102" x1="443.08" y1="72.77" x2="437.08" y2="72.77"/>
    <line class="st17" x1="443.08" y1="72.77" x2="437.08" y2="72.77"/>
  </g>
  <g class="st29">
    <line class="st102" x1="66.57" y1="69.69" x2="60.57" y2="69.69"/>
    <line class="st17" x1="66.57" y1="69.69" x2="60.57" y2="69.69"/>
    <line class="st102" x1="90.1" y1="67.38" x2="84.1" y2="67.38"/>
    <line class="st17" x1="90.1" y1="67.38" x2="84.1" y2="67.38"/>
    <line class="st102" x1="129.32" y1="65.41" x2="123.32" y2="65.41"/>
    <line class="st17" x1="129.32" y1="65.41" x2="123.32" y2="65.41"/>
    <line class="st102" x1="207.76" y1="70.31" x2="201.76" y2="70.31"/>
    <line class="st17" x1="207.76" y1="70.31" x2="201.76" y2="70.31"/>
    <line class="st102" x1="443.08" y1="70.51" x2="437.08" y2="70.51"/>
    <line class="st17" x1="443.08" y1="70.51" x2="437.08" y2="70.51"/>
  </g>
  <g class="st33">
    <line class="st10" x1="63.57" y1="303.27" x2="63.57" y2="283.02"/>
    <line class="st10" x1="87.1" y1="291.65" x2="87.1" y2="279.84"/>
    <line class="st10" x1="126.32" y1="295.09" x2="126.32" y2="283.96"/>
    <line class="st10" x1="204.76" y1="294.26" x2="204.76" y2="284.13"/>
    <line class="st10" x1="440.08" y1="294.21" x2="440.08" y2="283.94"/>
  </g>
  <g class="st30">
    <line class="st28" x1="66.57" y1="303.27" x2="60.57" y2="303.27"/>
    <line class="st7" x1="66.57" y1="303.27" x2="60.57" y2="303.27"/>
    <line class="st28" x1="90.1" y1="291.65" x2="84.1" y2="291.65"/>
    <line class="st7" x1="90.1" y1="291.65" x2="84.1" y2="291.65"/>
    <line class="st28" x1="129.32" y1="295.09" x2="123.32" y2="295.09"/>
    <line class="st7" x1="129.32" y1="295.09" x2="123.32" y2="295.09"/>
    <line class="st28" x1="207.76" y1="294.26" x2="201.76" y2="294.26"/>
    <line class="st7" x1="207.76" y1="294.26" x2="201.76" y2="294.26"/>
    <line class="st28" x1="443.08" y1="294.21" x2="437.08" y2="294.21"/>
    <line class="st7" x1="443.08" y1="294.21" x2="437.08" y2="294.21"/>
  </g>
  <g class="st75">
    <line class="st28" x1="66.57" y1="283.02" x2="60.57" y2="283.02"/>
    <line class="st7" x1="66.57" y1="283.02" x2="60.57" y2="283.02"/>
    <line class="st28" x1="90.1" y1="279.84" x2="84.1" y2="279.84"/>
    <line class="st7" x1="90.1" y1="279.84" x2="84.1" y2="279.84"/>
    <line class="st28" x1="129.32" y1="283.96" x2="123.32" y2="283.96"/>
    <line class="st7" x1="129.32" y1="283.96" x2="123.32" y2="283.96"/>
    <line class="st28" x1="207.76" y1="284.13" x2="201.76" y2="284.13"/>
    <line class="st7" x1="207.76" y1="284.13" x2="201.76" y2="284.13"/>
    <line class="st28" x1="443.08" y1="283.94" x2="437.08" y2="283.94"/>
    <line class="st7" x1="443.08" y1="283.94" x2="437.08" y2="283.94"/>
  </g>
  <g class="st76">
    <polyline class="st16" points="63.57 77.79 87.1 72.46 126.32 77.59 204.76 74.13 440.08 77.94"/>
    <g class="st77">
      <path class="st101" d="M63.57,81.29c.93,0,1.82-.37,2.47-1.03.66-.66,1.03-1.55,1.03-2.47s-.37-1.82-1.03-2.47c-.66-.66-1.55-1.03-2.47-1.03s-1.82.37-2.47,1.03c-.66.66-1.03,1.55-1.03,2.47s.37,1.82,1.03,2.47c.66.66,1.55,1.03,2.47,1.03Z"/>
      <path class="st11" d="M63.57,81.29c.93,0,1.82-.37,2.47-1.03.66-.66,1.03-1.55,1.03-2.47s-.37-1.82-1.03-2.47c-.66-.66-1.55-1.03-2.47-1.03s-1.82.37-2.47,1.03c-.66.66-1.03,1.55-1.03,2.47s.37,1.82,1.03,2.47c.66.66,1.55,1.03,2.47,1.03Z"/>
    </g>
    <g class="st78">
      <path class="st101" d="M87.1,75.96c.93,0,1.82-.37,2.47-1.03.66-.66,1.03-1.55,1.03-2.47s-.37-1.82-1.03-2.47c-.66-.66-1.55-1.03-2.47-1.03s-1.82.37-2.47,1.03c-.66.66-1.03,1.55-1.03,2.47s.37,1.82,1.03,2.47c.66.66,1.55,1.03,2.47,1.03Z"/>
      <path class="st11" d="M87.1,75.96c.93,0,1.82-.37,2.47-1.03.66-.66,1.03-1.55,1.03-2.47s-.37-1.82-1.03-2.47c-.66-.66-1.55-1.03-2.47-1.03s-1.82.37-2.47,1.03c-.66.66-1.03,1.55-1.03,2.47s.37,1.82,1.03,2.47c.66.66,1.55,1.03,2.47,1.03Z"/>
    </g>
    <g class="st79">
      <path class="st101" d="M126.32,81.09c.93,0,1.82-.37,2.47-1.03s1.03-1.55,1.03-2.47-.37-1.82-1.03-2.47-1.55-1.03-2.47-1.03-1.82.37-2.47,1.03c-.66.66-1.03,1.55-1.03,2.47s.37,1.82,1.03,2.47c.66.66,1.55,1.03,2.47,1.03Z"/>
      <path class="st11" d="M126.32,81.09c.93,0,1.82-.37,2.47-1.03s1.03-1.55,1.03-2.47-.37-1.82-1.03-2.47-1.55-1.03-2.47-1.03-1.82.37-2.47,1.03c-.66.66-1.03,1.55-1.03,2.47s.37,1.82,1.03,2.47c.66.66,1.55,1.03,2.47,1.03Z"/>
    </g>
    <g class="st80">
      <path class="st101" d="M204.76,77.63c.93,0,1.82-.37,2.47-1.03.66-.66,1.03-1.55,1.03-2.47s-.37-1.82-1.03-2.47c-.66-.66-1.55-1.03-2.47-1.03s-1.82.37-2.47,1.03c-.66.66-1.03,1.55-1.03,2.47s.37,1.82,1.03,2.47c.66.66,1.55,1.03,2.47,1.03Z"/>
      <path class="st11" d="M204.76,77.63c.93,0,1.82-.37,2.47-1.03.66-.66,1.03-1.55,1.03-2.47s-.37-1.82-1.03-2.47c-.66-.66-1.55-1.03-2.47-1.03s-1.82.37-2.47,1.03c-.66.66-1.03,1.55-1.03,2.47s.37,1.82,1.03,2.47c.66.66,1.55,1.03,2.47,1.03Z"/>
    </g>
    <g class="st73">
      <path class="st101" d="M440.08,81.44c.93,0,1.82-.37,2.47-1.03s1.03-1.55,1.03-2.47-.37-1.82-1.03-2.47-1.55-1.03-2.47-1.03-1.82.37-2.47,1.03-1.03,1.55-1.03,2.47.37,1.82,1.03,2.47,1.55,1.03,2.47,1.03Z"/>
      <path class="st11" d="M440.08,81.44c.93,0,1.82-.37,2.47-1.03s1.03-1.55,1.03-2.47-.37-1.82-1.03-2.47-1.55-1.03-2.47-1.03-1.82.37-2.47,1.03-1.03,1.55-1.03,2.47.37,1.82,1.03,2.47,1.55,1.03,2.47,1.03Z"/>
    </g>
  </g>
  <g class="st71">
    <polyline class="st12" points="63.57 72.44 87.1 70.65 126.32 70.1 204.76 71.59 440.08 71.64"/>
    <g class="st74">
      <rect class="st102" x="60.07" y="68.94" width="7" height="7"/>
      <rect class="st22" x="60.07" y="68.94" width="7" height="7"/>
    </g>
    <g class="st72">
      <rect class="st102" x="83.6" y="67.15" width="7" height="7"/>
      <rect class="st22" x="83.6" y="67.15" width="7" height="7"/>
    </g>
    <g class="st67">
      <rect class="st102" x="122.82" y="66.6" width="7" height="7"/>
      <rect class="st22" x="122.82" y="66.6" width="7" height="7"/>
    </g>
    <g class="st61">
      <rect class="st102" x="201.26" y="68.09" width="7" height="7"/>
      <rect class="st22" x="201.26" y="68.09" width="7" height="7"/>
    </g>
    <g class="st62">
      <rect class="st102" x="436.58" y="68.14" width="7" height="7"/>
      <rect class="st22" x="436.58" y="68.14" width="7" height="7"/>
    </g>
  </g>
  <g class="st63">
    <polyline class="st15" points="63.57 293.15 87.1 285.75 126.32 289.53 204.76 289.19 440.08 289.08"/>
    <g class="st64">
      <rect class="st28" x="60.07" y="289.64" width="7" height="7" transform="translate(-188.66 130.81) rotate(-45)"/>
      <rect class="st2" x="60.07" y="289.64" width="7" height="7" transform="translate(-188.66 130.81) rotate(-45)"/>
    </g>
    <g class="st65">
      <rect class="st28" x="83.6" y="282.25" width="7" height="7" transform="translate(-176.54 145.29) rotate(-45)"/>
      <rect class="st2" x="83.6" y="282.25" width="7" height="7" transform="translate(-176.54 145.29) rotate(-45)"/>
    </g>
    <g class="st68">
      <rect class="st28" x="122.82" y="286.03" width="7" height="7" transform="translate(-167.73 174.12) rotate(-45)"/>
      <rect class="st2" x="122.82" y="286.03" width="7" height="7" transform="translate(-167.73 174.12) rotate(-45)"/>
    </g>
    <g class="st69">
      <rect class="st28" x="201.26" y="285.69" width="7" height="7" transform="translate(-144.52 229.49) rotate(-45)"/>
      <rect class="st2" x="201.26" y="285.69" width="7" height="7" transform="translate(-144.52 229.49) rotate(-45)"/>
    </g>
    <g class="st70">
      <rect class="st28" x="436.58" y="285.58" width="7" height="7" transform="translate(-75.51 395.85) rotate(-45)"/>
      <rect class="st2" x="436.58" y="285.58" width="7" height="7" transform="translate(-75.51 395.85) rotate(-45)"/>
    </g>
  </g>
  <line class="st19" x1="44.75" y1="315.16" x2="44.75" y2="53.52"/>
  <line class="st19" x1="458.91" y1="315.16" x2="458.91" y2="53.52"/>
  <line class="st19" x1="44.75" y1="315.16" x2="458.91" y2="315.16"/>
  <line class="st19" x1="44.75" y1="53.52" x2="458.91" y2="53.52"/>
  <path d="M193.41,38.41c-.53.91-.91,1.8-1.16,2.68-.26.88-.38,1.76-.38,2.66s.12,1.8.38,2.68c.25.89.64,1.76,1.16,2.66h-.94c-.59-.92-1.03-1.81-1.32-2.7-.29-.89-.43-1.76-.43-2.64s.14-1.74.43-2.63c.29-.89.72-1.79,1.32-2.71h.94Z"/>
  <path d="M200.63,43.78v3.74h-1.08v-1c-.25.41-.56.7-.92.88s-.82.28-1.34.28c-.67,0-1.21-.18-1.61-.55s-.59-.88-.59-1.51c0-.73.24-1.28.74-1.67.49-.37,1.22-.56,2.21-.56h1.51v-.11c0-.49-.17-.88-.49-1.15-.32-.26-.78-.41-1.37-.41-.38,0-.74.05-1.1.14s-.7.23-1.02.4v-1c.38-.14.77-.26,1.14-.34.37-.07.73-.12,1.09-.12.95,0,1.66.25,2.12.74.47.49.71,1.24.71,2.23ZM198.48,44.22c-.88,0-1.48.11-1.81.3-.34.2-.5.54-.5,1.02,0,.38.12.7.37.91.25.23.6.34,1.03.34.6,0,1.08-.2,1.44-.64.36-.42.54-.98.54-1.69v-.24h-1.07Z"/>
  <path d="M202.68,38.41h.94c.58.92,1.02,1.82,1.31,2.71.29.89.44,1.76.44,2.63s-.16,1.75-.44,2.64c-.29.89-.73,1.78-1.31,2.7h-.94c.52-.9.9-1.78,1.16-2.66.25-.88.38-1.76.38-2.68s-.13-1.79-.38-2.66c-.26-.88-.65-1.76-1.16-2.68Z"/>
  <path d="M217.95,39.44v1.25c-.41-.36-.83-.64-1.28-.83-.46-.18-.92-.28-1.43-.28-1.01,0-1.78.31-2.3.92s-.79,1.49-.79,2.64.26,2.04.79,2.65,1.3.91,2.3.91c.5,0,.97-.08,1.43-.28.46-.18.88-.46,1.28-.83v1.24c-.42.29-.86.49-1.32.62-.46.13-.95.2-1.46.2-1.32,0-2.36-.4-3.13-1.2-.77-.8-1.14-1.91-1.14-3.32s.37-2.51,1.14-3.32c.77-.8,1.81-1.21,3.13-1.21.53,0,1.02.07,1.48.2.46.14.9.35,1.31.62Z"/>
  <path d="M222.27,40.8c.94,0,1.67.31,2.21.91.53.61.8,1.45.8,2.53s-.28,1.92-.8,2.52c-.54.61-1.27.91-2.21.91s-1.69-.3-2.22-.91c-.53-.6-.79-1.44-.79-2.52s.26-1.92.79-2.53c.53-.6,1.27-.91,2.22-.91ZM222.27,41.71c-.58,0-1.03.23-1.37.68s-.5,1.07-.5,1.85.16,1.4.49,1.86c.34.46.79.67,1.38.67s1.03-.22,1.37-.67c.34-.46.5-1.07.5-1.86s-.17-1.39-.5-1.85c-.34-.46-.79-.68-1.37-.68Z"/>
  <path d="M232.53,43.56v3.96h-1.08v-3.92c0-.62-.13-1.08-.37-1.39-.24-.31-.6-.47-1.08-.47-.59,0-1.04.19-1.38.56s-.5.88-.5,1.51v3.71h-1.08v-6.56h1.08v1.02c.25-.38.55-.68.91-.88.35-.19.76-.3,1.21-.3.74,0,1.32.24,1.7.71.38.47.59,1.15.59,2.05Z"/>
  <path d="M235.74,39.1v1.86h2.22v.84h-2.22v3.56c0,.54.07.89.22,1.03.14.16.44.23.9.23h1.1v.9h-1.1c-.84,0-1.42-.16-1.73-.47-.31-.31-.47-.88-.47-1.69v-3.56h-.79v-.84h.79v-1.86h1.08Z"/>
  <path d="M239.38,38.4h1.08v1.37h-1.08v-1.37ZM239.38,40.96h1.08v6.56h-1.08v-6.56Z"/>
  <path d="M248.17,43.56v3.96h-1.08v-3.92c0-.62-.13-1.08-.37-1.39-.24-.31-.6-.47-1.08-.47-.59,0-1.04.19-1.38.56s-.5.88-.5,1.51v3.71h-1.08v-6.56h1.08v1.02c.25-.38.55-.68.91-.88.35-.19.76-.3,1.21-.3.74,0,1.32.24,1.7.71.38.47.59,1.15.59,2.05Z"/>
  <path d="M252.93,40.8h0ZM250.21,44.93v-3.97h1.08v3.94c0,.62.12,1.08.36,1.39.24.31.6.47,1.09.47.58,0,1.04-.18,1.38-.55.34-.37.5-.88.5-1.52v-3.72h1.08v6.56h-1.08v-1.01c-.26.41-.58.7-.91.89-.35.18-.74.28-1.2.28-.76,0-1.33-.23-1.72-.7-.4-.46-.59-1.14-.59-2.05Z"/>
  <path d="M260.47,40.8c.94,0,1.67.31,2.21.91.53.61.8,1.45.8,2.53s-.28,1.92-.8,2.52c-.54.61-1.27.91-2.21.91s-1.69-.3-2.22-.91c-.53-.6-.79-1.44-.79-2.52s.26-1.92.79-2.53c.53-.6,1.27-.91,2.22-.91ZM260.47,41.71c-.58,0-1.03.23-1.37.68-.34.46-.5,1.07-.5,1.85s.16,1.4.49,1.86c.34.46.79.67,1.38.67s1.03-.22,1.37-.67c.34-.46.5-1.07.5-1.86s-.17-1.39-.5-1.85-.79-.68-1.37-.68Z"/>
  <path d="M267.88,40.8h0ZM265.17,44.93v-3.97h1.08v3.94c0,.62.12,1.08.36,1.39.24.31.6.47,1.09.47.58,0,1.04-.18,1.38-.55.34-.37.5-.88.5-1.52v-3.72h1.08v6.56h-1.08v-1.01c-.26.41-.58.7-.91.89-.35.18-.74.28-1.2.28-.76,0-1.33-.23-1.72-.7-.4-.46-.59-1.14-.59-2.05Z"/>
  <path d="M277.07,41.15v1.02c-.31-.14-.62-.26-.95-.35-.34-.07-.67-.12-1.02-.12-.54,0-.95.08-1.21.25-.26.17-.4.41-.4.73,0,.25.1.44.29.59.19.14.58.29,1.15.41l.37.08c.77.17,1.31.41,1.63.7.31.3.48.72.48,1.25,0,.61-.24,1.09-.72,1.44-.48.36-1.15.53-1.99.53-.36,0-.72-.04-1.1-.1s-.78-.16-1.2-.3v-1.12c.4.22.79.37,1.18.47.38.11.77.16,1.15.16.5,0,.9-.08,1.18-.25.26-.17.41-.42.41-.74,0-.29-.11-.52-.3-.67-.19-.16-.62-.31-1.3-.46l-.37-.08c-.67-.14-1.16-.36-1.45-.65-.3-.29-.44-.68-.44-1.2,0-.61.22-1.09.65-1.43s1.06-.5,1.87-.5c.4,0,.77.04,1.13.1.35.06.67.14.97.25Z"/>
  <polygon points="281.8 38.77 289.19 38.77 289.19 39.77 286.08 39.77 286.08 47.52 284.89 47.52 284.89 39.77 281.8 39.77 281.8 38.77"/>
  <path d="M293.43,43.78v3.74h-1.08v-1c-.25.41-.56.7-.92.88-.36.18-.82.28-1.34.28-.67,0-1.21-.18-1.61-.55-.4-.37-.59-.88-.59-1.51,0-.73.24-1.28.74-1.67.49-.37,1.22-.56,2.21-.56h1.51v-.11c0-.49-.17-.88-.49-1.15-.32-.26-.78-.41-1.37-.41-.38,0-.74.05-1.1.14-.36.1-.7.23-1.02.4v-1c.38-.14.77-.26,1.14-.34.37-.07.73-.12,1.09-.12.95,0,1.66.25,2.12.74.47.49.71,1.24.71,2.23ZM291.29,44.22c-.88,0-1.48.11-1.81.3-.34.2-.5.54-.5,1.02,0,.38.12.7.37.91.25.23.6.34,1.03.34.6,0,1.08-.2,1.44-.64.36-.42.54-.98.54-1.69v-.24h-1.07Z"/>
  <path d="M299.84,41.15v1.02c-.31-.14-.62-.26-.95-.35-.34-.07-.67-.12-1.02-.12-.54,0-.95.08-1.21.25-.26.17-.4.41-.4.73,0,.25.1.44.29.59.19.14.58.29,1.15.41l.37.08c.77.17,1.31.41,1.63.7.31.3.48.72.48,1.25,0,.61-.24,1.09-.72,1.44-.48.36-1.15.53-1.99.53-.36,0-.72-.04-1.1-.1s-.78-.16-1.2-.3v-1.12c.4.22.79.37,1.18.47.38.11.77.16,1.15.16.5,0,.9-.08,1.18-.25.26-.17.41-.42.41-.74,0-.29-.11-.52-.3-.67-.19-.16-.62-.31-1.3-.46l-.37-.08c-.67-.14-1.16-.36-1.45-.65-.3-.29-.44-.68-.44-1.2,0-.61.22-1.09.65-1.43s1.06-.5,1.87-.5c.4,0,.77.04,1.13.1.35.06.67.14.97.25Z"/>
  <polygon points="301.87 38.4 302.95 38.4 302.95 43.79 306.17 40.96 307.55 40.96 304.07 44.03 307.69 47.52 306.29 47.52 302.95 44.32 302.95 47.52 301.87 47.52 301.87 38.4"/>
  <path d="M313.04,41.15v1.02c-.31-.14-.62-.26-.95-.35-.34-.07-.67-.12-1.02-.12-.54,0-.95.08-1.21.25-.26.17-.4.41-.4.73,0,.25.1.44.29.59.19.14.58.29,1.15.41l.37.08c.77.17,1.31.41,1.63.7.31.3.48.72.48,1.25,0,.61-.24,1.09-.72,1.44-.48.36-1.15.53-1.99.53-.36,0-.72-.04-1.1-.1s-.78-.16-1.2-.3v-1.12c.4.22.79.37,1.18.47.38.11.77.16,1.15.16.5,0,.9-.08,1.18-.25.26-.17.41-.42.41-.74,0-.29-.11-.52-.3-.67-.19-.16-.62-.31-1.3-.46l-.37-.08c-.67-.14-1.16-.36-1.45-.65-.3-.29-.44-.68-.44-1.2,0-.61.22-1.09.65-1.43s1.06-.5,1.87-.5c.4,0,.77.04,1.13.1.35.06.67.14.97.25Z"/>
  <g>
    <rect class="st24" x="339.67" y="160.83" width="114.23" height="47.02" rx="2" ry="2"/>
    <rect class="st3" x="339.67" y="160.83" width="114.23" height="47.02" rx="2" ry="2"/>
  </g>
  <line class="st20" x1="353.67" y1="173.93" x2="353.67" y2="163.93"/>
  <line class="st101" x1="356.67" y1="173.93" x2="350.67" y2="173.93"/>
  <line class="st11" x1="356.67" y1="173.93" x2="350.67" y2="173.93"/>
  <line class="st101" x1="356.67" y1="163.93" x2="350.67" y2="163.93"/>
  <line class="st11" x1="356.67" y1="163.93" x2="350.67" y2="163.93"/>
  <line class="st16" x1="343.67" y1="168.93" x2="363.67" y2="168.93"/>
  <path class="st101" d="M353.67,172.43c.93,0,1.82-.37,2.47-1.03.66-.66,1.03-1.55,1.03-2.47s-.37-1.82-1.03-2.47-1.55-1.03-2.47-1.03-1.82.37-2.47,1.03-1.03,1.55-1.03,2.47.37,1.82,1.03,2.47c.66.66,1.55,1.03,2.47,1.03Z"/>
  <path class="st11" d="M353.67,172.43c.93,0,1.82-.37,2.47-1.03.66-.66,1.03-1.55,1.03-2.47s-.37-1.82-1.03-2.47-1.55-1.03-2.47-1.03-1.82.37-2.47,1.03-1.03,1.55-1.03,2.47.37,1.82,1.03,2.47c.66.66,1.55,1.03,2.47,1.03Z"/>
  <path d="M376.89,169.31v3.12h-.9v-.83c-.21.34-.47.58-.77.73-.3.15-.68.23-1.12.23-.56,0-1.01-.15-1.34-.46-.33-.31-.49-.73-.49-1.26,0-.61.2-1.07.62-1.39.41-.31,1.02-.47,1.84-.47h1.26v-.09c0-.41-.14-.73-.41-.96-.27-.22-.65-.34-1.14-.34-.32,0-.62.04-.92.12-.3.08-.58.19-.85.33v-.83c.32-.12.64-.22.95-.28s.61-.1.91-.1c.79,0,1.38.21,1.77.62.39.41.59,1.03.59,1.86ZM375.1,169.68c-.73,0-1.23.09-1.51.25-.28.17-.42.45-.42.85,0,.32.1.58.31.76.21.19.5.28.86.28.5,0,.9-.17,1.2-.53.3-.35.45-.82.45-1.41v-.2h-.89Z"/>
  <path d="M383.29,169.13v3.3h-.9v-3.27c0-.52-.11-.9-.31-1.16-.2-.26-.5-.39-.9-.39-.49,0-.87.16-1.15.47-.28.31-.42.73-.42,1.26v3.09h-.9v-5.47h.9v.85c.21-.32.46-.57.76-.73.29-.16.63-.25,1.01-.25.62,0,1.1.2,1.42.59s.49.96.49,1.71Z"/>
  <path d="M385.97,165.41v1.55h1.85v.7h-1.85v2.97c0,.45.06.74.18.86.12.13.37.19.75.19h.92v.75h-.92c-.7,0-1.18-.13-1.44-.39-.26-.26-.39-.73-.39-1.41v-2.97h-.66v-.7h.66v-1.55h.9Z"/>
  <line class="st14" x1="353.67" y1="188.6" x2="353.67" y2="178.6"/>
  <line class="st102" x1="356.67" y1="188.6" x2="350.67" y2="188.6"/>
  <line class="st17" x1="356.67" y1="188.6" x2="350.67" y2="188.6"/>
  <line class="st102" x1="356.67" y1="178.6" x2="350.67" y2="178.6"/>
  <line class="st17" x1="356.67" y1="178.6" x2="350.67" y2="178.6"/>
  <line class="st12" x1="343.67" y1="183.6" x2="363.67" y2="183.6"/>
  <rect class="st102" x="350.17" y="180.1" width="7" height="7"/>
  <rect class="st22" x="350.17" y="180.1" width="7" height="7"/>
  <path d="M373.15,184.37c0,.66.13,1.18.4,1.56.27.38.64.56,1.12.56s.85-.18,1.13-.56c.27-.38.41-.9.41-1.56s-.14-1.17-.41-1.55c-.28-.38-.65-.57-1.13-.57s-.85.19-1.12.57c-.27.38-.4.89-.4,1.55ZM376.21,182.46v-2.96h.9v7.6h-.9v-.82c-.19.33-.43.57-.72.72-.29.15-.63.23-1.03.23-.66,0-1.2-.26-1.62-.78-.42-.52-.62-1.22-.62-2.08s.2-1.55.62-2.08c.42-.52.96-.79,1.62-.79.4,0,.74.08,1.03.24.29.16.53.4.72.72Z"/>
  <polygon points="378.93 179.5 379.83 179.5 379.83 183.99 382.51 181.63 383.66 181.63 380.76 184.19 383.78 187.1 382.61 187.1 379.83 184.43 379.83 187.1 378.93 187.1 378.93 179.5"/>
  <path d="M384.75,179.5h.9v1.14h-.9v-1.14ZM384.75,181.63h.9v5.47h-.9v-5.47Z"/>
  <path d="M388.42,180.08v1.55h1.85v.7h-1.85v2.97c0,.45.06.74.18.86.12.13.37.19.75.19h.92v.75h-.92c-.7,0-1.18-.13-1.44-.39-.26-.26-.39-.73-.39-1.41v-2.97h-.66v-.7h.66v-1.55h.9Z"/>
  <path d="M392.34,180.08v1.55h1.85v.7h-1.85v2.97c0,.45.06.74.18.86.12.13.37.19.75.19h.92v.75h-.92c-.7,0-1.18-.13-1.44-.39-.26-.26-.39-.73-.39-1.41v-2.97h-.66v-.7h.66v-1.55h.9Z"/>
  <path d="M397.65,187.6c-.26.64-.51,1.07-.75,1.27s-.56.3-.96.3h-.72v-.75h.53c.24,0,.43-.06.57-.18.14-.12.29-.39.46-.83l.16-.4-2.21-5.38h.95l1.71,4.28,1.71-4.28h.95l-2.4,5.97Z"/>
  <line class="st10" x1="353.67" y1="203.27" x2="353.67" y2="193.27"/>
  <line class="st28" x1="356.67" y1="203.27" x2="350.67" y2="203.27"/>
  <line class="st7" x1="356.67" y1="203.27" x2="350.67" y2="203.27"/>
  <line class="st28" x1="356.67" y1="193.27" x2="350.67" y2="193.27"/>
  <line class="st7" x1="356.67" y1="193.27" x2="350.67" y2="193.27"/>
  <line class="st15" x1="343.67" y1="198.27" x2="363.67" y2="198.27"/>
  <rect class="st28" x="350.17" y="194.77" width="7" height="7" transform="translate(-36.61 308.16) rotate(-45)"/>
  <rect class="st2" x="350.17" y="194.77" width="7" height="7" transform="translate(-36.61 308.16) rotate(-45)"/>
  <path d="M376.1,196.46v.85c-.26-.12-.52-.22-.79-.29-.28-.06-.56-.1-.85-.1-.45,0-.79.07-1.01.21s-.33.34-.33.61c0,.21.08.37.24.49.16.12.48.24.96.34l.31.07c.64.14,1.09.34,1.36.58.26.25.4.6.4,1.04,0,.51-.2.91-.6,1.2-.4.3-.96.44-1.66.44-.3,0-.6-.03-.92-.08-.32-.05-.65-.13-1-.25v-.93c.33.18.66.31.98.39.32.09.64.13.96.13.42,0,.75-.07.98-.21.22-.14.34-.35.34-.62,0-.24-.09-.43-.25-.56-.16-.13-.52-.26-1.08-.38l-.31-.07c-.56-.12-.97-.3-1.21-.54-.25-.24-.37-.57-.37-1,0-.51.18-.91.54-1.19.36-.28.88-.42,1.56-.42.33,0,.64.03.94.08.29.05.56.12.81.21Z"/>
  <path d="M379.99,196.17h0ZM377.73,199.61v-3.31h.9v3.28c0,.52.1.9.3,1.16.2.26.5.39.91.39.48,0,.87-.15,1.15-.46.28-.31.42-.73.42-1.27v-3.1h.9v5.47h-.9v-.84c-.22.34-.48.58-.76.74-.29.15-.62.23-1,.23-.63,0-1.11-.19-1.43-.58-.33-.38-.49-.95-.49-1.71Z"/>
  <path d="M388.09,199.04c0-.66-.14-1.17-.41-1.55-.28-.38-.65-.57-1.12-.57s-.85.19-1.12.57c-.28.38-.41.89-.41,1.55s.13,1.18.41,1.56c.27.38.64.56,1.12.56s.84-.18,1.12-.56c.27-.38.41-.9.41-1.56ZM385.03,200.95v2.89h-.9v-7.54h.9v.83c.18-.32.42-.56.71-.72.29-.16.64-.24,1.04-.24.66,0,1.2.27,1.62.79.41.53.62,1.22.62,2.08s-.21,1.56-.62,2.08c-.42.52-.96.78-1.62.78-.4,0-.75-.08-1.04-.23-.29-.15-.53-.39-.71-.72Z"/>
  <path d="M394.29,198.55c-.01-.49-.15-.88-.41-1.18-.27-.29-.63-.44-1.07-.44-.5,0-.9.15-1.2.43-.3.28-.48.68-.52,1.19h3.2ZM395.19,198.81v.44h-4.13c.04.62.22,1.1.56,1.42.33.32.79.48,1.39.48.34,0,.68-.04,1-.12s.65-.21.97-.39v.85c-.32.14-.65.25-.99.31-.34.06-.69.1-1.03.1-.88,0-1.57-.25-2.08-.75s-.76-1.19-.76-2.06.24-1.6.72-2.13c.48-.52,1.14-.79,1.96-.79.74,0,1.32.24,1.75.71.42.48.64,1.12.64,1.93Z"/>
  <path d="M399.83,197.14c-.1-.06-.21-.1-.33-.13-.12-.02-.25-.04-.39-.04-.51,0-.9.17-1.17.5-.28.33-.41.8-.41,1.42v2.88h-.9v-5.47h.9v.85c.18-.33.43-.58.73-.74.3-.16.67-.24,1.11-.24.06,0,.13.01.21.01.07,0,.15.02.25.04v.92Z"/>
  <path d="M404.49,196.51v.84c-.26-.14-.51-.24-.77-.31-.26-.07-.51-.11-.77-.11-.58,0-1.04.19-1.36.56-.32.37-.48.89-.48,1.55s.16,1.19.48,1.56c.32.37.78.55,1.36.55.26,0,.51-.03.77-.1.26-.07.51-.18.77-.32v.83c-.26.12-.52.21-.78.26-.27.05-.56.08-.86.08-.82,0-1.48-.25-1.96-.77-.49-.51-.73-1.21-.73-2.09s.24-1.59.73-2.1,1.16-.77,2.02-.77c.28,0,.55.03.81.09.26.06.52.14.77.25Z"/>
  <path d="M408.17,196.17c.78,0,1.39.26,1.84.76.44.51.67,1.21.67,2.11s-.23,1.6-.67,2.1c-.45.51-1.06.76-1.84.76s-1.41-.25-1.85-.76c-.44-.5-.66-1.2-.66-2.1s.22-1.6.66-2.11c.44-.5,1.06-.76,1.85-.76ZM408.17,196.93c-.48,0-.86.19-1.14.57-.28.38-.42.89-.42,1.54s.13,1.17.41,1.55c.28.38.66.56,1.15.56s.86-.18,1.14-.56c.28-.38.42-.89.42-1.55s-.14-1.16-.42-1.54c-.28-.38-.66-.57-1.14-.57Z"/>
  <path d="M416.72,198.47v3.3h-.9v-3.27c0-.52-.11-.9-.31-1.16-.2-.26-.5-.39-.9-.39-.49,0-.87.16-1.15.47-.28.31-.42.73-.42,1.26v3.09h-.9v-5.47h.9v.85c.21-.32.46-.57.76-.73.29-.16.63-.25,1.01-.25.62,0,1.1.2,1.42.59s.49.96.49,1.71Z"/>
  <path d="M419.05,199.04c0,.66.13,1.18.4,1.56.27.38.64.56,1.12.56s.85-.18,1.13-.56c.27-.38.41-.9.41-1.56s-.14-1.17-.41-1.55c-.28-.38-.65-.57-1.13-.57s-.85.19-1.12.57c-.27.38-.4.89-.4,1.55ZM422.11,197.13v-2.96h.9v7.6h-.9v-.82c-.19.33-.43.57-.72.72-.29.15-.63.23-1.03.23-.66,0-1.2-.26-1.62-.78-.42-.52-.62-1.22-.62-2.08s.2-1.55.62-2.08c.42-.52.96-.79,1.62-.79.4,0,.74.08,1.03.24.29.16.53.4.72.72Z"/>
  <path d="M427.03,196.17h0ZM424.77,199.61v-3.31h.9v3.28c0,.52.1.9.3,1.16.2.26.5.39.91.39.48,0,.87-.15,1.15-.46.28-.31.42-.73.42-1.27v-3.1h.9v5.47h-.9v-.84c-.22.34-.48.58-.76.74-.29.15-.62.23-1,.23-.63,0-1.11-.19-1.43-.58-.33-.38-.49-.95-.49-1.71Z"/>
  <path d="M435.14,196.51v.84c-.26-.14-.51-.24-.77-.31-.26-.07-.51-.11-.77-.11-.58,0-1.04.19-1.36.56-.32.37-.48.89-.48,1.55s.16,1.19.48,1.56c.32.37.78.55,1.36.55.26,0,.51-.03.77-.1.26-.07.51-.18.77-.32v.83c-.26.12-.52.21-.78.26-.27.05-.56.08-.86.08-.82,0-1.48-.25-1.96-.77-.49-.51-.73-1.21-.73-2.09s.24-1.59.73-2.1,1.16-.77,2.02-.77c.28,0,.55.03.81.09.26.06.52.14.77.25Z"/>
  <path d="M437.59,194.75v1.55h1.85v.7h-1.85v2.97c0,.45.06.74.18.86.12.13.37.19.75.19h.92v.75h-.92c-.7,0-1.18-.13-1.44-.39-.26-.26-.39-.73-.39-1.41v-2.97h-.66v-.7h.66v-1.55h.9Z"/>
  <path d="M442.74,196.17c.78,0,1.39.26,1.84.76.44.51.67,1.21.67,2.11s-.23,1.6-.67,2.1c-.45.51-1.06.76-1.84.76s-1.41-.25-1.85-.76c-.44-.5-.66-1.2-.66-2.1s.22-1.6.66-2.11c.44-.5,1.06-.76,1.85-.76ZM442.74,196.93c-.48,0-.86.19-1.14.57-.28.38-.42.89-.42,1.54s.13,1.17.41,1.55c.28.38.66.56,1.15.56s.86-.18,1.14-.56c.28-.38.42-.89.42-1.55s-.14-1.16-.42-1.54c-.28-.38-.66-.57-1.14-.57Z"/>
  <path d="M449.91,197.14c-.1-.06-.21-.1-.33-.13-.12-.02-.25-.04-.39-.04-.51,0-.9.17-1.17.5-.28.33-.41.8-.41,1.42v2.88h-.9v-5.47h.9v.85c.18-.33.43-.58.73-.74.3-.16.67-.24,1.11-.24.06,0,.13.01.21.01.07,0,.15.02.25.04v.92Z"/>
  <rect class="st27" x="507.35" y="53.52" width="414.16" height="261.64"/>
  <g class="st66">
    <line class="st1" x1="551.27" y1="315.16" x2="551.27" y2="53.52"/>
  </g>
  <line x1="551.27" y1="315.16" x2="551.27" y2="318.66"/>
  <line class="st9" x1="551.27" y1="315.16" x2="551.27" y2="318.66"/>
  <polygon points="549.33 328.92 550.94 328.92 550.94 323.36 549.19 323.71 549.19 322.81 550.93 322.46 551.92 322.46 551.92 328.92 553.53 328.92 553.53 329.75 549.33 329.75 549.33 328.92"/>
  <g class="st88">
    <line class="st1" x1="601.47" y1="315.16" x2="601.47" y2="53.52"/>
  </g>
  <line x1="601.47" y1="315.16" x2="601.47" y2="318.66"/>
  <line class="st9" x1="601.47" y1="315.16" x2="601.47" y2="318.66"/>
  <path d="M600.21,328.92h3.44v.83h-4.63v-.83c.37-.38.88-.9,1.53-1.56.64-.65,1.05-1.07,1.22-1.26.32-.35.54-.65.66-.9.12-.24.19-.49.19-.73,0-.38-.14-.7-.41-.94-.27-.24-.62-.37-1.06-.37-.31,0-.64.06-.98.16-.34.11-.71.27-1.1.49v-1c.4-.16.77-.28,1.11-.36.34-.08.66-.12.95-.12.75,0,1.35.19,1.8.57.45.38.68.88.68,1.51,0,.3-.06.59-.17.85-.11.27-.31.59-.61.95-.08.1-.34.37-.78.82-.44.45-1.05,1.08-1.84,1.89Z"/>
  <g class="st82">
    <line class="st1" x1="651.68" y1="315.16" x2="651.68" y2="53.52"/>
  </g>
  <line x1="651.68" y1="315.16" x2="651.68" y2="318.66"/>
  <line class="st9" x1="651.68" y1="315.16" x2="651.68" y2="318.66"/>
  <path d="M652.56,325.82c.47.1.84.31,1.1.63.26.32.4.72.4,1.18,0,.72-.25,1.28-.74,1.67-.5.39-1.2.58-2.11.58-.31,0-.63-.03-.95-.09-.32-.05-.66-.14-1-.26v-.95c.27.16.57.28.9.36.32.08.66.12,1.02.12.62,0,1.09-.12,1.41-.36.32-.24.49-.6.49-1.07,0-.42-.15-.76-.45-1s-.72-.37-1.26-.37h-.85v-.81h.89c.48,0,.85-.09,1.11-.29.26-.19.39-.47.39-.84s-.14-.66-.4-.86c-.27-.2-.65-.3-1.14-.3-.27,0-.56.03-.87.09s-.65.15-1.02.27v-.88c.37-.1.72-.18,1.05-.23.32-.05.63-.08.93-.08.74,0,1.33.17,1.77.51s.66.8.66,1.38c0,.4-.12.74-.35,1.02-.23.28-.56.48-.98.58Z"/>
  <g class="st83">
    <line class="st1" x1="701.88" y1="315.16" x2="701.88" y2="53.52"/>
  </g>
  <line x1="701.88" y1="315.16" x2="701.88" y2="318.66"/>
  <line class="st9" x1="701.88" y1="315.16" x2="701.88" y2="318.66"/>
  <path d="M702.22,322.46h1.24v4.75h1.04v.82h-1.04v1.72h-.98v-1.72h-3.29v-.95l3.03-4.62ZM702.48,323.32l-2.49,3.89h2.49v-3.89Z"/>
  <g class="st84">
    <line class="st1" x1="752.08" y1="315.16" x2="752.08" y2="53.52"/>
  </g>
  <line x1="752.08" y1="315.16" x2="752.08" y2="318.66"/>
  <line class="st9" x1="752.08" y1="315.16" x2="752.08" y2="318.66"/>
  <path d="M749.98,322.46h3.87v.83h-2.97v1.79c.14-.05.29-.09.43-.11.14-.02.29-.04.43-.04.81,0,1.45.23,1.93.67.48.45.72,1.05.72,1.81s-.25,1.4-.74,1.83-1.18.64-2.06.64c-.31,0-.62-.03-.94-.07-.32-.05-.64-.12-.98-.23v-.99c.29.16.59.28.91.36.31.08.64.11.99.11.56,0,1.01-.14,1.34-.44.32-.3.49-.7.49-1.21s-.17-.9-.49-1.2c-.33-.3-.78-.45-1.34-.45-.26,0-.53.03-.79.09-.26.06-.53.15-.8.27v-3.66Z"/>
  <g class="st85">
    <line class="st1" x1="802.28" y1="315.16" x2="802.28" y2="53.52"/>
  </g>
  <line x1="802.28" y1="315.16" x2="802.28" y2="318.66"/>
  <line class="st9" x1="802.28" y1="315.16" x2="802.28" y2="318.66"/>
  <path d="M804.36,322.62v.9c-.25-.12-.5-.21-.75-.27-.26-.06-.51-.09-.75-.09-.66,0-1.16.22-1.5.66-.34.44-.54,1.11-.58,1.99.19-.28.43-.5.72-.65.29-.15.61-.23.96-.23.73,0,1.31.23,1.73.67.42.44.64,1.05.64,1.81s-.23,1.35-.67,1.8c-.44.45-1.03.67-1.76.67-.84,0-1.49-.32-1.93-.96-.45-.64-.67-1.58-.67-2.81,0-1.15.27-2.07.82-2.75.54-.68,1.28-1.03,2.2-1.03.24,0,.49.03.75.07.25.05.51.12.79.22ZM802.4,325.71c-.44,0-.79.16-1.05.46-.26.3-.39.72-.39,1.24s.13.95.39,1.25.61.45,1.05.45.79-.15,1.05-.45c.26-.3.39-.72.39-1.25s-.13-.94-.39-1.24c-.26-.3-.61-.46-1.05-.46Z"/>
  <g class="st86">
    <line class="st1" x1="852.48" y1="315.16" x2="852.48" y2="53.52"/>
  </g>
  <line x1="852.48" y1="315.16" x2="852.48" y2="318.66"/>
  <line class="st9" x1="852.48" y1="315.16" x2="852.48" y2="318.66"/>
  <polygon points="850.12 322.46 854.81 322.46 854.81 322.88 852.16 329.75 851.13 329.75 853.62 323.29 850.12 323.29 850.12 322.46"/>
  <g class="st89">
    <line class="st1" x1="902.68" y1="315.16" x2="902.68" y2="53.52"/>
  </g>
  <line x1="902.68" y1="315.16" x2="902.68" y2="318.66"/>
  <line class="st9" x1="902.68" y1="315.16" x2="902.68" y2="318.66"/>
  <path d="M901.33,324.31c0,.38.11.68.35.89.24.21.57.31,1,.31s.75-.1.99-.31c.24-.21.36-.51.36-.89s-.12-.67-.36-.88c-.24-.21-.57-.32-.99-.32s-.76.11-1,.32c-.24.21-.35.5-.35.88ZM901.69,325.87c-.42-.1-.75-.3-.99-.59-.24-.29-.35-.64-.35-1.06,0-.58.2-1.04.62-1.38.41-.34.98-.51,1.71-.51s1.29.17,1.71.51c.41.34.62.8.62,1.38,0,.42-.12.77-.36,1.06-.24.29-.56.49-.98.59.47.11.84.33,1.11.65.26.32.4.72.4,1.18,0,.71-.22,1.25-.65,1.62-.44.38-1.06.56-1.86.56s-1.42-.18-1.85-.56c-.43-.37-.64-.91-.64-1.62,0-.46.13-.86.4-1.18.26-.32.63-.54,1.11-.65ZM902.68,326.29c-.47,0-.84.13-1.11.38s-.4.59-.4,1.03.13.79.4,1.04.64.37,1.11.37.83-.12,1.1-.38c.27-.25.41-.59.41-1.03s-.14-.78-.4-1.03c-.27-.25-.64-.38-1.11-.38Z"/>
  <g class="st90">
    <path d="M714.7,343.52c.1.21.39.31.86.31h.56l-.19.99h-.7c-.77,0-1.29-.19-1.55-.61-.27-.42-.31-1.07-.13-1.96l.65-3.37h-2.68l.23-1.17h6.55l-.22,1.17h-2.69l-.68,3.43c-.13.62-.13,1.03-.01,1.21Z"/>
  </g>
  <g class="st91">
    <line class="st1" x1="507.35" y1="289.53" x2="921.51" y2="289.53"/>
  </g>
  <line x1="507.35" y1="289.53" x2="503.85" y2="289.53"/>
  <line class="st9" x1="507.35" y1="289.53" x2="503.85" y2="289.53"/>
  <path d="M487.62,285.91c.81,0,1.43.33,1.87.97.43.65.65,1.59.65,2.81s-.22,2.17-.65,2.81c-.44.64-1.06.96-1.88.96s-1.44-.32-1.87-.96c-.43-.64-.64-1.58-.64-2.81s.21-2.16.64-2.81c.43-.64,1.06-.97,1.88-.97ZM487.62,286.69c-.51,0-.89.25-1.15.75s-.38,1.25-.38,2.25.12,1.75.38,2.25.64.75,1.15.75.89-.25,1.15-.75c.25-.5.38-1.25.38-2.25s-.13-1.75-.38-2.25c-.26-.5-.64-.75-1.15-.75Z"/>
  <rect x="491.87" y="292.09" width="1.03" height="1.24"/>
  <path d="M499.24,286.2v.9c-.25-.12-.5-.21-.75-.27-.26-.06-.51-.09-.75-.09-.66,0-1.16.22-1.5.66s-.54,1.11-.58,1.99c.19-.28.43-.5.72-.65.29-.15.61-.23.96-.23.73,0,1.31.23,1.73.67.42.44.64,1.05.64,1.81s-.23,1.35-.67,1.8-1.03.67-1.76.67c-.84,0-1.49-.32-1.93-.96-.45-.64-.67-1.58-.67-2.81,0-1.15.27-2.07.82-2.75.54-.68,1.28-1.03,2.2-1.03.24,0,.49.03.75.07.25.05.51.12.79.22ZM497.28,289.29c-.44,0-.79.16-1.05.46-.26.3-.39.72-.39,1.24s.13.95.39,1.25.61.45,1.05.45.79-.15,1.05-.45c.26-.3.39-.72.39-1.25s-.13-.94-.39-1.24c-.26-.3-.61-.46-1.05-.46Z"/>
  <g class="st87">
    <line class="st1" x1="507.35" y1="232.77" x2="921.51" y2="232.77"/>
  </g>
  <line x1="507.35" y1="232.77" x2="503.85" y2="232.77"/>
  <line class="st9" x1="507.35" y1="232.77" x2="503.85" y2="232.77"/>
  <path d="M487.62,229.15c.81,0,1.43.33,1.87.97.43.65.65,1.59.65,2.81s-.22,2.17-.65,2.81c-.44.64-1.06.96-1.88.96s-1.44-.32-1.87-.96c-.43-.64-.64-1.58-.64-2.81s.21-2.16.64-2.81c.43-.64,1.06-.97,1.88-.97ZM487.62,229.93c-.51,0-.89.25-1.15.75s-.38,1.25-.38,2.25.12,1.75.38,2.25.64.75,1.15.75.89-.25,1.15-.75c.25-.5.38-1.25.38-2.25s-.13-1.75-.38-2.25c-.26-.5-.64-.75-1.15-.75Z"/>
  <rect x="491.87" y="235.33" width="1.03" height="1.24"/>
  <polygon points="494.8 229.28 499.49 229.28 499.49 229.7 496.84 236.57 495.81 236.57 498.3 230.11 494.8 230.11 494.8 229.28"/>
  <g class="st48">
    <line class="st1" x1="507.35" y1="176.01" x2="921.51" y2="176.01"/>
  </g>
  <line x1="507.35" y1="176.01" x2="503.85" y2="176.01"/>
  <line class="st9" x1="507.35" y1="176.01" x2="503.85" y2="176.01"/>
  <path d="M487.62,172.39c.81,0,1.43.33,1.87.97.43.65.65,1.59.65,2.81s-.22,2.17-.65,2.81c-.44.64-1.06.96-1.88.96s-1.44-.32-1.87-.96c-.43-.64-.64-1.58-.64-2.81s.21-2.16.64-2.81c.43-.64,1.06-.97,1.88-.97ZM487.62,173.17c-.51,0-.89.25-1.15.75s-.38,1.25-.38,2.25.12,1.75.38,2.25.64.75,1.15.75.89-.25,1.15-.75c.25-.5.38-1.25.38-2.25s-.13-1.75-.38-2.25c-.26-.5-.64-.75-1.15-.75Z"/>
  <rect x="491.87" y="178.57" width="1.03" height="1.24"/>
  <path d="M495.81,174.37c0,.38.11.68.35.89.24.21.57.31,1,.31s.75-.1.99-.31c.24-.21.36-.51.36-.89s-.12-.67-.36-.88c-.24-.21-.57-.32-.99-.32s-.76.11-1,.32c-.24.21-.35.5-.35.88ZM496.17,175.93c-.42-.1-.75-.3-.99-.59-.24-.29-.35-.64-.35-1.06,0-.58.2-1.04.62-1.38.41-.34.98-.51,1.71-.51s1.29.17,1.71.51c.41.34.62.8.62,1.38,0,.42-.12.77-.36,1.06-.24.29-.56.49-.98.59.47.11.84.33,1.11.65.26.32.4.72.4,1.18,0,.71-.22,1.25-.65,1.62-.44.38-1.06.56-1.86.56s-1.42-.18-1.85-.56c-.43-.37-.64-.91-.64-1.62,0-.46.13-.86.4-1.18.26-.32.63-.54,1.11-.65ZM497.16,176.35c-.47,0-.84.13-1.11.38-.27.25-.4.59-.4,1.03s.13.79.4,1.04c.27.25.64.37,1.11.37s.83-.12,1.1-.38c.27-.25.41-.59.41-1.03s-.14-.78-.4-1.03c-.27-.25-.64-.38-1.11-.38Z"/>
  <g class="st58">
    <line class="st1" x1="507.35" y1="119.25" x2="921.51" y2="119.25"/>
  </g>
  <line x1="507.35" y1="119.25" x2="503.85" y2="119.25"/>
  <line class="st9" x1="507.35" y1="119.25" x2="503.85" y2="119.25"/>
  <path d="M487.62,115.63c.81,0,1.43.33,1.87.97.43.65.65,1.59.65,2.81s-.22,2.17-.65,2.81c-.44.64-1.06.96-1.88.96s-1.44-.32-1.87-.96c-.43-.64-.64-1.58-.64-2.81s.21-2.16.64-2.81c.43-.64,1.06-.97,1.88-.97ZM487.62,116.41c-.51,0-.89.25-1.15.75s-.38,1.25-.38,2.25.12,1.75.38,2.25.64.75,1.15.75.89-.25,1.15-.75c.25-.5.38-1.25.38-2.25s-.13-1.75-.38-2.25c-.26-.5-.64-.75-1.15-.75Z"/>
  <rect x="491.87" y="121.81" width="1.03" height="1.24"/>
  <path d="M497.04,119.81c.44,0,.79-.15,1.05-.45.26-.3.39-.72.39-1.25s-.13-.94-.39-1.24c-.26-.3-.61-.46-1.05-.46s-.79.16-1.05.46c-.26.3-.39.72-.39,1.24s.13.95.39,1.25c.26.3.61.45,1.05.45ZM495.08,122.9v-.9c.24.12.49.21.75.27.25.06.5.09.75.09.64,0,1.14-.21,1.48-.65.34-.44.54-1.1.6-2-.2.28-.44.5-.72.65-.29.15-.61.22-.96.22-.74,0-1.32-.22-1.74-.66-.42-.44-.63-1.04-.63-1.81s.22-1.34.66-1.8c.44-.45,1.03-.68,1.77-.68.84,0,1.49.33,1.93.97.44.65.67,1.59.67,2.81s-.28,2.07-.82,2.75c-.55.68-1.28,1.02-2.2,1.02-.25,0-.5-.03-.75-.07-.26-.04-.52-.11-.79-.21Z"/>
  <g class="st50">
    <line class="st1" x1="507.35" y1="62.49" x2="921.51" y2="62.49"/>
  </g>
  <line x1="507.35" y1="62.49" x2="503.85" y2="62.49"/>
  <line class="st9" x1="507.35" y1="62.49" x2="503.85" y2="62.49"/>
  <polygon points="485.68 65.46 487.29 65.46 487.29 59.9 485.54 60.25 485.54 59.35 487.28 59 488.27 59 488.27 65.46 489.88 65.46 489.88 66.29 485.68 66.29 485.68 65.46"/>
  <rect x="491.87" y="65.05" width="1.03" height="1.24"/>
  <path d="M497.16,58.87c.81,0,1.43.33,1.87.97.43.65.65,1.59.65,2.81s-.22,2.17-.65,2.81c-.44.64-1.06.96-1.88.96s-1.44-.32-1.87-.96c-.43-.64-.64-1.58-.64-2.81s.21-2.16.64-2.81c.43-.64,1.06-.97,1.88-.97ZM497.16,59.65c-.51,0-.89.25-1.15.75s-.38,1.25-.38,2.25.12,1.75.38,2.25.64.75,1.15.75.89-.25,1.15-.75c.25-.5.38-1.25.38-2.25s-.13-1.75-.38-2.25c-.26-.5-.64-.75-1.15-.75Z"/>
  <polygon points="470.14 251.64 470.14 250.17 476.85 246.62 470.14 246.62 470.14 245.56 478.16 245.56 478.16 247.03 471.45 250.58 478.16 250.58 478.16 251.64 470.14 251.64"/>
  <path d="M472,241.12c0-.86.29-1.53.84-2.02.56-.48,1.33-.74,2.32-.74s1.76.25,2.31.74c.56.5.84,1.17.84,2.02s-.27,1.55-.84,2.03c-.55.48-1.32.73-2.31.73s-1.76-.24-2.32-.73c-.55-.48-.84-1.17-.84-2.03ZM472.84,241.12c0,.53.21.95.63,1.25s.98.46,1.69.46,1.29-.14,1.7-.45.62-.73.62-1.26-.2-.95-.62-1.25-.98-.46-1.7-.46-1.28.15-1.69.46-.63.73-.63,1.25Z"/>
  <path d="M473.07,233.23c-.07.11-.11.23-.14.36-.02.13-.04.27-.04.43,0,.56.19.99.55,1.29.36.31.88.45,1.56.45h3.17v.99h-6.02v-.99h.93c-.36-.2-.64-.47-.81-.8s-.26-.74-.26-1.22c0-.07.01-.14.01-.23.01-.08.02-.17.04-.28h1.01Z"/>
  <path d="M473.3,227.7c-.44-.24-.76-.54-.98-.88-.21-.34-.32-.75-.32-1.22,0-.62.22-1.1.66-1.44s1.07-.52,1.87-.52h3.63v.99h-3.6c-.57,0-1,.11-1.29.31-.27.21-.42.52-.42.93,0,.52.18.92.52,1.22s.8.44,1.39.44h3.4v.99h-3.6c-.57,0-1,.11-1.29.31-.27.21-.42.53-.42.95,0,.51.18.91.52,1.21s.8.44,1.39.44h3.4v.99h-6.02v-.99h.93c-.36-.22-.64-.5-.81-.81-.18-.31-.26-.68-.26-1.12s.11-.8.33-1.11.55-.53.97-.68Z"/>
  <path d="M474.73,216.97h3.43v.99h-.91c.37.23.64.52.8.85.16.33.25.75.25,1.23,0,.62-.17,1.11-.51,1.47-.34.36-.8.54-1.39.54-.67,0-1.18-.22-1.53-.68-.34-.45-.52-1.12-.52-2.02v-1.39h-.1c-.45,0-.8.15-1.06.45-.24.3-.37.71-.37,1.25,0,.35.04.68.13,1.01.09.33.21.64.36.93h-.91c-.13-.35-.24-.7-.31-1.04-.07-.34-.11-.67-.11-1,0-.87.23-1.52.68-1.95s1.13-.65,2.05-.65ZM475.13,218.93c0,.8.1,1.35.27,1.66.19.31.49.46.93.46.35,0,.64-.11.84-.34.21-.23.31-.55.31-.95,0-.55-.19-.99-.58-1.32-.39-.33-.9-.49-1.55-.49h-.22v.98Z"/>
  <rect x="469.8" y="213.94" width="8.36" height=".99"/>
  <path d="M469.8,211.87v-.99h1.25v.99h-1.25ZM472.14,211.87v-.99h6.02v.99h-6.02Z"/>
  <polygon points="472.14 209.24 472.14 204.55 473.04 204.55 477.37 208.26 477.37 204.55 478.16 204.55 478.16 209.38 477.26 209.38 472.93 205.66 472.93 209.24 472.14 209.24"/>
  <path d="M474.62,198.88c-.54.01-.97.16-1.3.45-.32.3-.48.69-.48,1.18,0,.55.17.99.47,1.32.31.33.75.53,1.31.57v-3.52ZM474.9,197.89h.48v4.54c.68-.04,1.21-.24,1.56-.62.35-.36.53-.87.53-1.53,0-.37-.04-.75-.13-1.1-.09-.35-.23-.71-.43-1.07h.93c.15.35.28.71.34,1.09.07.37.11.76.11,1.13,0,.97-.27,1.73-.83,2.29-.55.56-1.31.84-2.27.84s-1.76-.26-2.34-.79c-.57-.53-.87-1.25-.87-2.16,0-.81.26-1.45.78-1.93.53-.46,1.23-.7,2.12-.7Z"/>
  <path d="M475.16,195.68c.73,0,1.3-.14,1.72-.44.42-.3.62-.7.62-1.23s-.2-.93-.62-1.24c-.42-.3-.99-.45-1.72-.45s-1.29.15-1.71.45c-.42.31-.63.71-.63,1.24s.21.93.63,1.23c.42.3.98.44,1.71.44ZM473.06,192.31h-3.26v-.99h8.36v.99h-.9c.36.21.63.47.79.79.16.32.25.69.25,1.13,0,.73-.29,1.32-.86,1.78-.57.46-1.34.68-2.29.68s-1.71-.22-2.29-.68c-.57-.46-.87-1.06-.87-1.78,0-.44.09-.81.26-1.13s.44-.58.79-.79Z"/>
  <path d="M470.4,180.94h1.06c-.2.42-.34.8-.44,1.17-.09.37-.14.73-.14,1.06,0,.59.12,1.06.34,1.38.23.32.56.47.98.47.35,0,.63-.1.8-.32.19-.21.33-.62.44-1.21l.13-.66c.15-.8.43-1.4.81-1.78.4-.39.91-.58,1.56-.58.78,0,1.36.26,1.76.78.4.53.59,1.29.59,2.29,0,.39-.04.79-.12,1.22s-.2.87-.37,1.32h-1.12c.25-.44.44-.87.56-1.29.13-.42.19-.84.19-1.25,0-.62-.12-1.09-.36-1.43-.24-.33-.58-.51-1.05-.51-.4,0-.7.12-.92.36s-.38.64-.49,1.19l-.13.66c-.15.81-.41,1.4-.76,1.76-.34.36-.81.54-1.43.54-.7,0-1.27-.24-1.67-.75-.41-.49-.62-1.19-.62-2.07,0-.37.03-.75.1-1.14.07-.38.18-.78.31-1.2Z"/>
  <path d="M472.37,174.47h.92c-.15.29-.26.56-.34.85-.08.29-.12.56-.12.85,0,.64.21,1.14.62,1.5.41.35.98.53,1.71.53s1.31-.18,1.72-.53c.41-.35.6-.86.6-1.5,0-.29-.03-.56-.11-.85-.08-.29-.2-.56-.35-.85h.91c.13.29.23.57.29.86.05.3.09.62.09.95,0,.9-.27,1.63-.85,2.16-.56.54-1.33.8-2.3.8s-1.75-.26-2.31-.8c-.56-.54-.85-1.28-.85-2.22,0-.31.03-.6.1-.89.07-.29.15-.57.27-.85Z"/>
  <path d="M472,170.42c0-.86.29-1.53.84-2.02.56-.48,1.33-.74,2.32-.74s1.76.25,2.31.74c.56.49.84,1.17.84,2.02s-.27,1.55-.84,2.04c-.55.48-1.32.73-2.31.73s-1.76-.24-2.32-.73c-.55-.48-.84-1.17-.84-2.04ZM472.84,170.42c0,.53.21.95.63,1.25s.98.46,1.69.46,1.29-.14,1.7-.45.62-.73.62-1.26-.2-.95-.62-1.25-.98-.46-1.7-.46-1.28.15-1.69.46-.63.73-.63,1.25Z"/>
  <path d="M473.07,162.54c-.07.11-.11.23-.14.36-.02.13-.04.28-.04.43,0,.56.19.99.55,1.29.36.31.88.45,1.56.45h3.17v.99h-6.02v-.99h.93c-.36-.2-.64-.47-.81-.8-.18-.33-.26-.74-.26-1.22,0-.07.01-.14.01-.23.01-.08.02-.16.04-.27h1.01Z"/>
  <path d="M474.62,157.58c-.54.01-.97.16-1.3.45-.32.3-.48.69-.48,1.18,0,.55.17.99.47,1.32.31.33.75.53,1.31.57v-3.52ZM474.9,156.59h.48v4.54c.68-.04,1.21-.24,1.56-.62.35-.36.53-.87.53-1.53,0-.37-.04-.75-.13-1.1-.09-.35-.23-.71-.43-1.07h.93c.15.35.28.71.34,1.09.07.37.11.76.11,1.13,0,.97-.27,1.73-.83,2.29-.55.56-1.31.84-2.27.84s-1.76-.26-2.34-.79c-.57-.53-.87-1.25-.87-2.16,0-.81.26-1.45.78-1.93.53-.46,1.23-.7,2.12-.7Z"/>
  <g class="st54">
    <line class="st23" x1="526.17" y1="74.28" x2="526.17" y2="69.64"/>
    <line class="st23" x1="551.27" y1="79.28" x2="551.27" y2="66.02"/>
    <line class="st23" x1="601.47" y1="73.9" x2="601.47" y2="66.16"/>
    <line class="st23" x1="701.88" y1="70.55" x2="701.88" y2="65.41"/>
    <line class="st23" x1="902.68" y1="68.23" x2="902.68" y2="65.68"/>
  </g>
  <g class="st52">
    <line class="st26" x1="529.17" y1="74.28" x2="523.17" y2="74.28"/>
    <line class="st6" x1="529.17" y1="74.28" x2="523.17" y2="74.28"/>
    <line class="st26" x1="554.27" y1="79.28" x2="548.27" y2="79.28"/>
    <line class="st6" x1="554.27" y1="79.28" x2="548.27" y2="79.28"/>
    <line class="st26" x1="604.47" y1="73.9" x2="598.47" y2="73.9"/>
    <line class="st6" x1="604.47" y1="73.9" x2="598.47" y2="73.9"/>
    <line class="st26" x1="704.88" y1="70.55" x2="698.88" y2="70.55"/>
    <line class="st6" x1="704.88" y1="70.55" x2="698.88" y2="70.55"/>
    <line class="st26" x1="905.68" y1="68.23" x2="899.68" y2="68.23"/>
    <line class="st6" x1="905.68" y1="68.23" x2="899.68" y2="68.23"/>
  </g>
  <g class="st49">
    <line class="st26" x1="529.17" y1="69.64" x2="523.17" y2="69.64"/>
    <line class="st6" x1="529.17" y1="69.64" x2="523.17" y2="69.64"/>
    <line class="st26" x1="554.27" y1="66.02" x2="548.27" y2="66.02"/>
    <line class="st6" x1="554.27" y1="66.02" x2="548.27" y2="66.02"/>
    <line class="st26" x1="604.47" y1="66.16" x2="598.47" y2="66.16"/>
    <line class="st6" x1="604.47" y1="66.16" x2="598.47" y2="66.16"/>
    <line class="st26" x1="704.88" y1="65.41" x2="698.88" y2="65.41"/>
    <line class="st6" x1="704.88" y1="65.41" x2="698.88" y2="65.41"/>
    <line class="st26" x1="905.68" y1="65.68" x2="899.68" y2="65.68"/>
    <line class="st6" x1="905.68" y1="65.68" x2="899.68" y2="65.68"/>
  </g>
  <g class="st53">
    <line class="st5" x1="526.17" y1="281.16" x2="526.17" y2="231.97"/>
    <line class="st5" x1="551.27" y1="303.27" x2="551.27" y2="161.41"/>
    <line class="st5" x1="601.47" y1="258.05" x2="601.47" y2="192.5"/>
    <line class="st5" x1="701.88" y1="258.64" x2="701.88" y2="178.05"/>
    <line class="st5" x1="902.68" y1="294.55" x2="902.68" y2="155.53"/>
  </g>
  <g class="st51">
    <line class="st25" x1="529.17" y1="281.16" x2="523.17" y2="281.16"/>
    <line class="st4" x1="529.17" y1="281.16" x2="523.17" y2="281.16"/>
    <line class="st25" x1="554.27" y1="303.27" x2="548.27" y2="303.27"/>
    <line class="st4" x1="554.27" y1="303.27" x2="548.27" y2="303.27"/>
    <line class="st25" x1="604.47" y1="258.05" x2="598.47" y2="258.05"/>
    <line class="st4" x1="604.47" y1="258.05" x2="598.47" y2="258.05"/>
    <line class="st25" x1="704.88" y1="258.64" x2="698.88" y2="258.64"/>
    <line class="st4" x1="704.88" y1="258.64" x2="698.88" y2="258.64"/>
    <line class="st25" x1="905.68" y1="294.55" x2="899.68" y2="294.55"/>
    <line class="st4" x1="905.68" y1="294.55" x2="899.68" y2="294.55"/>
  </g>
  <g class="st59">
    <line class="st25" x1="529.17" y1="231.97" x2="523.17" y2="231.97"/>
    <line class="st4" x1="529.17" y1="231.97" x2="523.17" y2="231.97"/>
    <line class="st25" x1="554.27" y1="161.41" x2="548.27" y2="161.41"/>
    <line class="st4" x1="554.27" y1="161.41" x2="548.27" y2="161.41"/>
    <line class="st25" x1="604.47" y1="192.5" x2="598.47" y2="192.5"/>
    <line class="st4" x1="604.47" y1="192.5" x2="598.47" y2="192.5"/>
    <line class="st25" x1="704.88" y1="178.05" x2="698.88" y2="178.05"/>
    <line class="st4" x1="704.88" y1="178.05" x2="698.88" y2="178.05"/>
    <line class="st25" x1="905.68" y1="155.53" x2="899.68" y2="155.53"/>
    <line class="st4" x1="905.68" y1="155.53" x2="899.68" y2="155.53"/>
  </g>
  <g class="st60">
    <polyline class="st8" points="526.17 71.96 551.27 72.65 601.47 70.03 701.88 67.98 902.68 66.96"/>
    <g class="st42">
      <polygon class="st26" points="526.17 68.46 522.67 75.46 529.67 75.46 526.17 68.46"/>
      <polygon class="st13" points="526.17 68.46 522.67 75.46 529.67 75.46 526.17 68.46"/>
    </g>
    <g class="st39">
      <polygon class="st26" points="551.27 69.15 547.77 76.15 554.77 76.15 551.27 69.15"/>
      <polygon class="st13" points="551.27 69.15 547.77 76.15 554.77 76.15 551.27 69.15"/>
    </g>
    <g class="st44">
      <polygon class="st26" points="601.47 66.53 597.97 73.53 604.97 73.53 601.47 66.53"/>
      <polygon class="st13" points="601.47 66.53 597.97 73.53 604.97 73.53 601.47 66.53"/>
    </g>
    <g class="st47">
      <polygon class="st26" points="701.88 64.48 698.38 71.48 705.38 71.48 701.88 64.48"/>
      <polygon class="st13" points="701.88 64.48 698.38 71.48 705.38 71.48 701.88 64.48"/>
    </g>
    <g class="st45">
      <polygon class="st26" points="902.68 63.46 899.18 70.46 906.18 70.46 902.68 63.46"/>
      <polygon class="st13" points="902.68 63.46 899.18 70.46 906.18 70.46 902.68 63.46"/>
    </g>
  </g>
  <g class="st43">
    <polyline class="st18" points="526.17 256.56 551.27 232.34 601.47 225.27 701.88 218.34 902.68 225.04"/>
    <g class="st46">
      <polygon class="st25" points="526.17 260.06 529.67 253.06 522.67 253.06 526.17 260.06"/>
      <polygon class="st21" points="526.17 260.06 529.67 253.06 522.67 253.06 526.17 260.06"/>
    </g>
    <g class="st40">
      <polygon class="st25" points="551.27 235.84 554.77 228.84 547.77 228.84 551.27 235.84"/>
      <polygon class="st21" points="551.27 235.84 554.77 228.84 547.77 228.84 551.27 235.84"/>
    </g>
    <g class="st41">
      <polygon class="st25" points="601.47 228.77 604.97 221.77 597.97 221.77 601.47 228.77"/>
      <polygon class="st21" points="601.47 228.77 604.97 221.77 597.97 221.77 601.47 228.77"/>
    </g>
    <g class="st81">
      <polygon class="st25" points="701.88 221.84 705.38 214.84 698.38 214.84 701.88 221.84"/>
      <polygon class="st21" points="701.88 221.84 705.38 214.84 698.38 214.84 701.88 221.84"/>
    </g>
    <g class="st55">
      <polygon class="st25" points="902.68 228.54 906.18 221.54 899.18 221.54 902.68 228.54"/>
      <polygon class="st21" points="902.68 228.54 906.18 221.54 899.18 221.54 902.68 228.54"/>
    </g>
  </g>
  <line class="st19" x1="507.35" y1="315.16" x2="507.35" y2="53.52"/>
  <line class="st19" x1="921.51" y1="315.16" x2="921.51" y2="53.52"/>
  <line class="st19" x1="507.35" y1="315.16" x2="921.51" y2="315.16"/>
  <line class="st19" x1="507.35" y1="53.52" x2="921.51" y2="53.52"/>
  <path d="M664.97,38.41c-.53.91-.91,1.8-1.16,2.68-.26.88-.38,1.76-.38,2.66s.12,1.8.38,2.68c.25.89.64,1.76,1.16,2.66h-.94c-.59-.92-1.03-1.81-1.32-2.7-.29-.89-.43-1.76-.43-2.64s.14-1.74.43-2.63c.29-.89.72-1.79,1.32-2.71h.94Z"/>
  <path d="M668.11,41.95c.22-.38.5-.67.85-.86.35-.19.77-.29,1.25-.29.79,0,1.44.32,1.94.95.49.64.74,1.46.74,2.5s-.25,1.87-.74,2.5c-.5.62-1.15.94-1.94.94-.48,0-.9-.1-1.25-.28-.35-.18-.64-.47-.85-.86v.98h-1.08v-9.12h1.08v3.55ZM671.78,44.24c0-.79-.17-1.4-.49-1.86-.34-.46-.78-.68-1.34-.68s-1.02.23-1.34.68c-.34.46-.49,1.07-.49,1.86s.16,1.42.49,1.87c.32.46.77.67,1.34.67s1.01-.22,1.34-.67c.32-.46.49-1.08.49-1.87Z"/>
  <path d="M674.51,38.41h.94c.58.92,1.02,1.82,1.31,2.71.29.89.44,1.76.44,2.63s-.16,1.75-.44,2.64c-.29.89-.73,1.78-1.31,2.7h-.94c.52-.9.9-1.78,1.16-2.66.25-.88.38-1.76.38-2.68s-.13-1.79-.38-2.66c-.26-.88-.65-1.76-1.16-2.68Z"/>
  <path d="M683.23,38.77h2.44c1.69,0,2.94.36,3.73,1.06.79.71,1.19,1.81,1.19,3.31s-.41,2.62-1.2,3.32c-.79.71-2.04,1.06-3.72,1.06h-2.44v-8.75ZM684.41,39.74v6.8h1.43c1.2,0,2.09-.26,2.65-.82.55-.55.84-1.42.84-2.59s-.29-2.03-.84-2.58c-.56-.54-1.45-.82-2.65-.82h-1.43Z"/>
  <path d="M692.42,38.4h1.08v1.37h-1.08v-1.37ZM692.42,40.96h1.08v6.56h-1.08v-6.56Z"/>
  <path d="M699.94,41.15v1.02c-.31-.14-.62-.26-.95-.35-.34-.07-.67-.12-1.02-.12-.54,0-.95.08-1.21.25-.26.17-.4.41-.4.73,0,.25.1.44.29.59.19.14.58.29,1.15.41l.37.08c.77.17,1.31.41,1.63.7.31.3.48.72.48,1.25,0,.61-.24,1.09-.72,1.44-.48.36-1.15.53-1.99.53-.36,0-.72-.04-1.1-.1-.38-.06-.78-.16-1.2-.3v-1.12c.4.22.79.37,1.18.47.38.11.77.16,1.15.16.5,0,.9-.08,1.18-.25.26-.17.41-.42.41-.74,0-.29-.11-.52-.3-.67s-.62-.31-1.3-.46l-.37-.08c-.67-.14-1.16-.36-1.45-.65-.3-.29-.44-.68-.44-1.2,0-.61.22-1.09.65-1.43s1.06-.5,1.87-.5c.4,0,.77.04,1.13.1.35.06.67.14.97.25Z"/>
  <path d="M706.73,41.21v1.01c-.31-.17-.61-.29-.92-.37-.31-.08-.61-.13-.92-.13-.7,0-1.25.23-1.63.67-.38.44-.58,1.07-.58,1.86s.19,1.43.58,1.87c.38.44.94.66,1.63.66.31,0,.61-.04.92-.12.31-.08.61-.22.92-.38v1c-.31.14-.62.25-.94.31-.32.06-.67.1-1.03.1-.98,0-1.78-.3-2.35-.92-.59-.61-.88-1.45-.88-2.51s.29-1.91.88-2.52,1.39-.92,2.42-.92c.34,0,.66.04.97.11s.62.17.92.3Z"/>
  <path d="M712.41,41.96c-.12-.07-.25-.12-.4-.16-.14-.02-.3-.05-.47-.05-.61,0-1.08.2-1.4.6-.34.4-.49.96-.49,1.7v3.46h-1.08v-6.56h1.08v1.02c.22-.4.52-.7.88-.89.36-.19.8-.29,1.33-.29.07,0,.16.01.25.01.08.01.18.02.3.05v1.1Z"/>
  <path d="M717.82,43.66c-.01-.59-.18-1.06-.49-1.42-.32-.35-.76-.53-1.28-.53-.6,0-1.08.18-1.44.52s-.58.82-.62,1.43h3.84ZM718.9,43.97v.53h-4.96c.05.74.26,1.32.67,1.7.4.38.95.58,1.67.58.41,0,.82-.05,1.2-.14s.78-.25,1.16-.47v1.02c-.38.17-.78.3-1.19.37-.41.07-.83.12-1.24.12-1.06,0-1.88-.3-2.5-.9-.61-.6-.91-1.43-.91-2.47s.29-1.92.86-2.56c.58-.62,1.37-.95,2.35-.95.89,0,1.58.29,2.1.85.5.58.77,1.34.77,2.32Z"/>
  <path d="M721.74,39.1v1.86h2.22v.84h-2.22v3.56c0,.54.07.89.22,1.03.14.16.44.23.9.23h1.1v.9h-1.1c-.84,0-1.42-.16-1.73-.47-.31-.31-.47-.88-.47-1.69v-3.56h-.79v-.84h.79v-1.86h1.08Z"/>
  <path d="M729.91,43.66c-.01-.59-.18-1.06-.49-1.42-.32-.35-.76-.53-1.28-.53-.6,0-1.08.18-1.44.52s-.58.82-.62,1.43h3.84ZM730.99,43.97v.53h-4.96c.05.74.26,1.32.67,1.7.4.38.95.58,1.67.58.41,0,.82-.05,1.2-.14.38-.1.78-.25,1.16-.47v1.02c-.38.17-.78.3-1.19.37-.41.07-.83.12-1.24.12-1.06,0-1.88-.3-2.5-.9-.61-.6-.91-1.43-.91-2.47s.29-1.92.86-2.56c.58-.62,1.37-.95,2.35-.95.89,0,1.58.29,2.1.85.5.58.77,1.34.77,2.32Z"/>
  <polygon points="735.42 38.77 742.81 38.77 742.81 39.77 739.7 39.77 739.7 47.52 738.51 47.52 738.51 39.77 735.42 39.77 735.42 38.77"/>
  <path d="M747.05,43.78v3.74h-1.08v-1c-.25.41-.56.7-.92.88s-.82.28-1.34.28c-.67,0-1.21-.18-1.61-.55s-.59-.88-.59-1.51c0-.73.24-1.28.74-1.67.49-.37,1.22-.56,2.21-.56h1.51v-.11c0-.49-.17-.88-.49-1.15-.32-.26-.78-.41-1.37-.41-.38,0-.74.05-1.1.14-.36.1-.7.23-1.02.4v-1c.38-.14.77-.26,1.14-.34.37-.07.73-.12,1.09-.12.95,0,1.66.25,2.12.74.47.49.71,1.24.71,2.23ZM744.9,44.22c-.88,0-1.48.11-1.81.3-.34.2-.5.54-.5,1.02,0,.38.12.7.37.91.25.23.6.34,1.03.34.6,0,1.08-.2,1.44-.64.36-.42.54-.98.54-1.69v-.24h-1.07Z"/>
  <path d="M753.46,41.15v1.02c-.31-.14-.62-.26-.95-.35-.34-.07-.67-.12-1.02-.12-.54,0-.95.08-1.21.25-.26.17-.4.41-.4.73,0,.25.1.44.29.59.19.14.58.29,1.15.41l.37.08c.77.17,1.31.41,1.63.7.31.3.48.72.48,1.25,0,.61-.24,1.09-.72,1.44-.48.36-1.15.53-1.99.53-.36,0-.72-.04-1.1-.1-.38-.06-.78-.16-1.2-.3v-1.12c.4.22.79.37,1.18.47.38.11.77.16,1.15.16.5,0,.9-.08,1.18-.25.26-.17.41-.42.41-.74,0-.29-.11-.52-.3-.67s-.62-.31-1.3-.46l-.37-.08c-.67-.14-1.16-.36-1.45-.65-.3-.29-.44-.68-.44-1.2,0-.61.22-1.09.65-1.43s1.06-.5,1.87-.5c.4,0,.77.04,1.13.1.35.06.67.14.97.25Z"/>
  <polygon points="755.49 38.4 756.57 38.4 756.57 43.79 759.78 40.96 761.16 40.96 757.68 44.03 761.31 47.52 759.9 47.52 756.57 44.32 756.57 47.52 755.49 47.52 755.49 38.4"/>
  <path d="M766.66,41.15v1.02c-.31-.14-.62-.26-.95-.35-.34-.07-.67-.12-1.02-.12-.54,0-.95.08-1.21.25-.26.17-.4.41-.4.73,0,.25.1.44.29.59.19.14.58.29,1.15.41l.37.08c.77.17,1.31.41,1.63.7.31.3.48.72.48,1.25,0,.61-.24,1.09-.72,1.44-.48.36-1.15.53-1.99.53-.36,0-.72-.04-1.1-.1-.38-.06-.78-.16-1.2-.3v-1.12c.4.22.79.37,1.18.47.38.11.77.16,1.15.16.5,0,.9-.08,1.18-.25.26-.17.41-.42.41-.74,0-.29-.11-.52-.3-.67s-.62-.31-1.3-.46l-.37-.08c-.67-.14-1.16-.36-1.45-.65-.3-.29-.44-.68-.44-1.2,0-.61.22-1.09.65-1.43s1.06-.5,1.87-.5c.4,0,.77.04,1.13.1.35.06.67.14.97.25Z"/>
  <g>
    <rect class="st24" x="838.54" y="168.17" width="77.97" height="32.34" rx="2" ry="2"/>
    <rect class="st3" x="838.54" y="168.17" width="77.97" height="32.34" rx="2" ry="2"/>
  </g>
  <line class="st23" x1="852.54" y1="181.26" x2="852.54" y2="171.26"/>
  <line class="st26" x1="855.54" y1="181.26" x2="849.54" y2="181.26"/>
  <line class="st6" x1="855.54" y1="181.26" x2="849.54" y2="181.26"/>
  <line class="st26" x1="855.54" y1="171.26" x2="849.54" y2="171.26"/>
  <line class="st6" x1="855.54" y1="171.26" x2="849.54" y2="171.26"/>
  <line class="st8" x1="842.54" y1="176.26" x2="862.54" y2="176.26"/>
  <polygon class="st26" points="852.54 172.76 849.04 179.76 856.04 179.76 852.54 172.76"/>
  <polygon class="st13" points="852.54 172.76 849.04 179.76 856.04 179.76 852.54 172.76"/>
  <path d="M872.37,172.74v1.55h1.85v.7h-1.85v2.97c0,.45.06.74.18.86.12.13.37.19.75.19h.92v.75h-.92c-.7,0-1.18-.13-1.44-.39s-.39-.73-.39-1.41v-2.97h-.66v-.7h.66v-1.55h.9Z"/>
  <path d="M878.17,172.16v.75h-.86c-.32,0-.55.07-.67.2-.13.13-.19.36-.19.7v.48h1.48v.7h-1.48v4.77h-.9v-4.77h-.86v-.7h.86v-.38c0-.6.14-1.05.42-1.33.28-.28.73-.42,1.35-.42h.85Z"/>
  <path d="M879.79,175.12c.18-.32.42-.56.71-.72.29-.16.64-.24,1.04-.24.66,0,1.2.27,1.62.79.41.53.62,1.22.62,2.08s-.21,1.56-.62,2.08c-.42.52-.96.78-1.62.78-.4,0-.75-.08-1.04-.23-.29-.15-.53-.39-.71-.72v.82h-.9v-7.6h.9v2.96ZM882.85,177.03c0-.66-.14-1.17-.41-1.55-.28-.38-.65-.57-1.12-.57s-.85.19-1.12.57c-.28.38-.41.89-.41,1.55s.13,1.18.41,1.56c.27.38.64.56,1.12.56s.84-.18,1.12-.56c.27-.38.41-.9.41-1.56Z"/>
  <path d="M885.27,172.16h.9v1.14h-.9v-1.14ZM885.27,174.29h.9v5.47h-.9v-5.47Z"/>
  <path d="M892.6,176.46v3.3h-.9v-3.27c0-.52-.11-.9-.31-1.16-.2-.26-.5-.39-.9-.39-.49,0-.87.16-1.15.47-.28.31-.42.73-.42,1.26v3.09h-.9v-5.47h.9v.85c.21-.32.46-.57.76-.73.29-.16.63-.25,1.01-.25.62,0,1.1.2,1.42.59s.49.96.49,1.71Z"/>
  <path d="M894.93,177.03c0,.66.13,1.18.4,1.56s.64.56,1.12.56.85-.18,1.13-.56c.27-.38.41-.9.41-1.56s-.14-1.17-.41-1.55c-.28-.38-.65-.57-1.13-.57s-.85.19-1.12.57-.4.89-.4,1.55ZM897.99,175.12v-2.96h.9v7.6h-.9v-.82c-.19.33-.43.57-.72.72-.29.15-.63.23-1.03.23-.66,0-1.2-.26-1.62-.78-.42-.52-.62-1.22-.62-2.08s.2-1.55.62-2.08c.42-.52.96-.79,1.62-.79.4,0,.74.08,1.03.24s.53.4.72.72Z"/>
  <path d="M901.63,174.32c0,.38.11.68.35.89.24.21.57.31,1,.31s.75-.1.99-.31c.24-.21.36-.51.36-.89s-.12-.67-.36-.88c-.24-.21-.57-.32-.99-.32s-.76.11-1,.32c-.24.21-.35.5-.35.88ZM901.99,175.88c-.42-.1-.75-.3-.99-.59s-.35-.64-.35-1.06c0-.58.2-1.04.62-1.38.41-.34.98-.51,1.71-.51s1.29.17,1.71.51c.41.34.62.8.62,1.38,0,.42-.12.77-.36,1.06-.24.29-.56.49-.98.59.47.11.84.33,1.11.65.26.32.4.72.4,1.18,0,.71-.22,1.25-.65,1.62-.44.38-1.06.56-1.86.56s-1.42-.18-1.85-.56c-.43-.37-.64-.91-.64-1.62,0-.46.13-.86.4-1.18.26-.32.63-.54,1.11-.65ZM902.98,176.3c-.47,0-.84.13-1.11.38s-.4.59-.4,1.03.13.79.4,1.04.64.37,1.11.37.83-.12,1.1-.38c.27-.25.41-.59.41-1.03s-.14-.78-.4-1.03c-.27-.25-.64-.38-1.11-.38Z"/>
  <line class="st5" x1="852.54" y1="195.93" x2="852.54" y2="185.93"/>
  <line class="st25" x1="855.54" y1="195.93" x2="849.54" y2="195.93"/>
  <line class="st4" x1="855.54" y1="195.93" x2="849.54" y2="195.93"/>
  <line class="st25" x1="855.54" y1="185.93" x2="849.54" y2="185.93"/>
  <line class="st4" x1="855.54" y1="185.93" x2="849.54" y2="185.93"/>
  <line class="st18" x1="842.54" y1="190.93" x2="862.54" y2="190.93"/>
  <polygon class="st25" points="852.54 194.43 856.04 187.43 849.04 187.43 852.54 194.43"/>
  <polygon class="st21" points="852.54 194.43 856.04 187.43 849.04 187.43 852.54 194.43"/>
  <path d="M872.37,187.41v1.55h1.85v.7h-1.85v2.97c0,.45.06.74.18.86.12.13.37.19.75.19h.92v.75h-.92c-.7,0-1.18-.13-1.44-.39s-.39-.73-.39-1.41v-2.97h-.66v-.7h.66v-1.55h.9Z"/>
  <path d="M878.17,186.83v.75h-.86c-.32,0-.55.07-.67.2-.13.13-.19.36-.19.7v.48h1.48v.7h-1.48v4.77h-.9v-4.77h-.86v-.7h.86v-.38c0-.6.14-1.05.42-1.33.28-.28.73-.42,1.35-.42h.85Z"/>
  <path d="M879.79,189.79c.18-.32.42-.56.71-.72.29-.16.64-.24,1.04-.24.66,0,1.2.27,1.62.79.41.53.62,1.22.62,2.08s-.21,1.56-.62,2.08c-.42.52-.96.78-1.62.78-.4,0-.75-.08-1.04-.23-.29-.15-.53-.39-.71-.72v.82h-.9v-7.6h.9v2.96ZM882.85,191.7c0-.66-.14-1.17-.41-1.55-.28-.38-.65-.57-1.12-.57s-.85.19-1.12.57c-.28.38-.41.89-.41,1.55s.13,1.18.41,1.56c.27.38.64.56,1.12.56s.84-.18,1.12-.56c.27-.38.41-.9.41-1.56Z"/>
  <path d="M885.27,186.83h.9v1.14h-.9v-1.14ZM885.27,188.96h.9v5.47h-.9v-5.47Z"/>
  <path d="M892.6,191.13v3.3h-.9v-3.27c0-.52-.11-.9-.31-1.16-.2-.26-.5-.39-.9-.39-.49,0-.87.16-1.15.47-.28.31-.42.73-.42,1.26v3.09h-.9v-5.47h.9v.85c.21-.32.46-.57.76-.73.29-.16.63-.25,1.01-.25.62,0,1.1.2,1.42.59s.49.96.49,1.71Z"/>
  <path d="M894.93,191.7c0,.66.13,1.18.4,1.56s.64.56,1.12.56.85-.18,1.13-.56c.27-.38.41-.9.41-1.56s-.14-1.17-.41-1.55c-.28-.38-.65-.57-1.13-.57s-.85.19-1.12.57-.4.89-.4,1.55ZM897.99,189.79v-2.96h.9v7.6h-.9v-.82c-.19.33-.43.57-.72.72-.29.15-.63.23-1.03.23-.66,0-1.2-.26-1.62-.78-.42-.52-.62-1.22-.62-2.08s.2-1.55.62-2.08c.42-.52.96-.79,1.62-.79.4,0,.74.08,1.03.24s.53.4.72.72Z"/>
  <polygon points="901.04 193.6 902.65 193.6 902.65 188.04 900.9 188.39 900.9 187.49 902.64 187.14 903.63 187.14 903.63 193.6 905.24 193.6 905.24 194.43 901.04 194.43 901.04 193.6"/>
  <path d="M909.34,187.01c.81,0,1.43.33,1.87.97.43.65.65,1.59.65,2.81s-.22,2.17-.65,2.81c-.44.64-1.06.96-1.88.96s-1.44-.32-1.87-.96-.64-1.58-.64-2.81.21-2.16.64-2.81c.43-.64,1.06-.97,1.88-.97ZM909.34,187.79c-.51,0-.89.25-1.15.75-.26.5-.38,1.25-.38,2.25s.12,1.75.38,2.25c.26.5.64.75,1.15.75s.89-.25,1.15-.75c.25-.5.38-1.25.38-2.25s-.13-1.75-.38-2.25c-.26-.5-.64-.75-1.15-.75Z"/>
  <path d="M366.29,7.9v2c-.52-.23-1.03-.4-1.52-.52-.49-.12-.96-.18-1.4-.18-.58,0-1.01.09-1.3.25-.29.16-.42.4-.42.74,0,.26.09.47.29.6.18.14.53.26,1.03.36l1.04.21c1.04.21,1.79.53,2.24.96.44.44.68,1.05.68,1.85,0,1.04-.31,1.82-.94,2.33-.62.51-1.56.75-2.83.75-.6,0-1.21-.07-1.81-.17-.61-.1-1.22-.26-1.82-.49v-2.07c.6.33,1.18.57,1.76.73.56.17,1.1.25,1.64.25s.94-.08,1.22-.26.43-.43.43-.77c0-.29-.1-.52-.3-.68s-.57-.31-1.14-.44l-.95-.21c-.95-.21-1.64-.53-2.08-.98-.44-.44-.65-1.04-.65-1.79,0-.94.3-1.66.91-2.17.6-.51,1.48-.77,2.63-.77.52,0,1.05.04,1.6.12.55.08,1.12.19,1.72.35Z"/>
  <path d="M373.71,12.75c0-.43-.13-.78-.38-1.04-.26-.26-.58-.4-.99-.4-.44,0-.81.13-1.08.38-.27.25-.44.6-.51,1.07h2.95ZM376.05,13.5v.65h-5.32c.05.53.25.94.59,1.2.32.27.78.4,1.38.4.47,0,.96-.07,1.47-.21.49-.14,1.01-.36,1.55-.65v1.76c-.55.21-1.08.35-1.61.44-.55.1-1.08.16-1.61.16-1.29,0-2.29-.33-3-.98s-1.07-1.56-1.07-2.74.35-2.07,1.05-2.73,1.66-1,2.89-1c1.12,0,2,.34,2.68,1.01s1.01,1.57,1.01,2.69Z"/>
  <path d="M384.92,12.75v4.33h-2.29v-3.32c0-.61-.01-1.03-.04-1.26-.03-.23-.08-.4-.14-.52-.09-.14-.21-.26-.36-.34-.16-.08-.34-.13-.52-.13-.48,0-.86.18-1.12.55-.27.36-.4.87-.4,1.52v3.5h-2.27v-7.11h2.27v1.04c.34-.42.69-.71,1.08-.91.39-.2.82-.3,1.29-.3.82,0,1.44.26,1.87.75.42.51.64,1.24.64,2.2Z"/>
  <path d="M392.58,10.18v1.73c-.49-.19-.96-.35-1.4-.45-.46-.1-.88-.16-1.29-.16-.44,0-.75.07-.96.17-.21.1-.31.27-.31.49,0,.18.08.33.23.42.16.1.44.17.86.22l.4.05c1.16.16,1.94.39,2.34.73.4.34.61.87.61,1.6s-.29,1.33-.85,1.7c-.56.38-1.39.56-2.5.56-.47,0-.96-.04-1.46-.1-.51-.07-1.03-.17-1.55-.33v-1.73c.44.23.91.4,1.39.51.47.1.96.16,1.46.16.44,0,.77-.05,1-.18.22-.12.34-.3.34-.55,0-.21-.08-.35-.23-.46s-.47-.18-.92-.23l-.4-.05c-1.01-.12-1.72-.35-2.12-.7-.42-.34-.61-.86-.61-1.56,0-.75.25-1.31.77-1.68.52-.36,1.31-.55,2.38-.55.42,0,.85.04,1.31.1.47.07.96.16,1.51.29Z"/>
  <path d="M394.77,7.19h2.27v1.86h-2.27v-1.86ZM394.77,9.96h2.27v7.11h-2.27v-7.11Z"/>
  <path d="M401.7,7.95v2.02h2.34v1.62h-2.34v3.02c0,.34.07.56.19.68.13.12.39.17.78.17h1.17v1.62h-1.95c-.9,0-1.53-.18-1.91-.56-.38-.36-.56-1-.56-1.91v-3.02h-1.13v-1.62h1.13v-2.02h2.28Z"/>
  <path d="M405.44,7.19h2.27v1.86h-2.27v-1.86ZM405.44,9.96h2.27v7.11h-2.27v-7.11Z"/>
  <polygon points="408.99 9.96 411.27 9.96 413.04 14.88 414.81 9.96 417.08 9.96 414.29 17.07 411.79 17.07 408.99 9.96"/>
  <path d="M418.37,7.19h2.27v1.86h-2.27v-1.86ZM418.37,9.96h2.27v7.11h-2.27v-7.11Z"/>
  <path d="M425.3,7.95v2.02h2.34v1.62h-2.34v3.02c0,.34.07.56.19.68.13.12.39.17.78.17h1.17v1.62h-1.95c-.9,0-1.53-.18-1.91-.56-.38-.36-.56-1-.56-1.91v-3.02h-1.13v-1.62h1.13v-2.02h2.28Z"/>
  <path d="M428.1,9.96h2.27l1.91,4.82,1.62-4.82h2.27l-2.99,7.77c-.31.78-.66,1.34-1.05,1.65-.4.31-.94.48-1.59.48h-1.31v-1.5h.72c.38,0,.65-.07.83-.18.18-.13.31-.35.42-.66l.07-.19-3.17-7.37Z"/>
  <path d="M467.18,16.55c-.45.23-.92.42-1.4.52-.49.1-1,.17-1.52.17-1.59,0-2.83-.43-3.76-1.31-.92-.87-1.38-2.07-1.38-3.59s.46-2.7,1.38-3.59c.92-.88,2.17-1.33,3.76-1.33.52,0,1.03.07,1.52.18.48.12.95.29,1.4.52v1.96c-.45-.31-.9-.53-1.34-.68-.44-.14-.91-.22-1.39-.22-.88,0-1.57.29-2.07.85-.49.56-.74,1.33-.74,2.3s.25,1.76.74,2.31c.49.56,1.18.83,2.07.83.48,0,.95-.07,1.39-.21.44-.14.88-.38,1.34-.69v1.96Z"/>
  <path d="M472.48,9.79c1.22,0,2.17.34,2.86.99.69.66,1.04,1.57,1.04,2.74s-.35,2.09-1.04,2.74-1.64.98-2.86.98-2.18-.33-2.87-.98c-.7-.65-1.04-1.57-1.04-2.74s.34-2.08,1.04-2.74c.69-.65,1.65-.99,2.87-.99ZM472.48,11.42c-.51,0-.9.18-1.16.55-.26.36-.39.88-.39,1.56s.13,1.21.39,1.57c.26.36.65.53,1.16.53s.87-.17,1.13-.53c.26-.36.4-.88.4-1.57s-.14-1.2-.4-1.56c-.26-.36-.64-.55-1.13-.55Z"/>
  <path d="M485.18,12.75v4.33h-2.29v-3.32c0-.61-.01-1.03-.04-1.26-.03-.23-.08-.4-.14-.52-.09-.14-.21-.26-.36-.34-.16-.08-.34-.13-.52-.13-.48,0-.86.18-1.12.55-.27.36-.4.87-.4,1.52v3.5h-2.27v-7.11h2.27v1.04c.34-.42.69-.71,1.08-.91.39-.2.82-.3,1.29-.3.82,0,1.44.26,1.87.75.42.51.64,1.24.64,2.2Z"/>
  <path d="M489.77,7.95v2.02h2.34v1.62h-2.34v3.02c0,.34.07.56.19.68.13.12.39.17.78.17h1.17v1.62h-1.95c-.9,0-1.53-.18-1.91-.56-.38-.36-.56-1-.56-1.91v-3.02h-1.13v-1.62h1.13v-2.02h2.28Z"/>
  <path d="M493.5,7.19h2.27v1.86h-2.27v-1.86ZM493.5,9.96h2.27v7.11h-2.27v-7.11Z"/>
  <path d="M505.11,12.75v4.33h-2.29v-3.32c0-.61-.01-1.03-.04-1.26-.03-.23-.08-.4-.14-.52-.09-.14-.21-.26-.36-.34-.16-.08-.34-.13-.52-.13-.48,0-.86.18-1.12.55-.27.36-.4.87-.4,1.52v3.5h-2.27v-7.11h2.27v1.04c.34-.42.69-.71,1.08-.91.39-.2.82-.3,1.29-.3.82,0,1.44.26,1.87.75.42.51.64,1.24.64,2.2Z"/>
  <path d="M507.14,14.31v-4.34h2.29v.71c0,.39-.01.87-.01,1.46v1.16c0,.57.01.99.04,1.23.03.26.08.44.16.55.09.16.21.27.36.35.14.08.31.12.52.12.47,0,.85-.18,1.12-.55.26-.36.4-.87.4-1.52v-3.51h2.28v7.11h-2.28v-1.03c-.34.42-.7.73-1.09.91-.39.18-.81.29-1.26.29-.83,0-1.46-.25-1.89-.74-.43-.49-.64-1.24-.64-2.2Z"/>
  <path d="M519.85,9.79c1.22,0,2.17.34,2.86.99.69.66,1.04,1.57,1.04,2.74s-.35,2.09-1.04,2.74c-.69.65-1.64.98-2.86.98s-2.18-.33-2.87-.98c-.7-.65-1.04-1.57-1.04-2.74s.34-2.08,1.04-2.74c.69-.65,1.65-.99,2.87-.99ZM519.85,11.42c-.51,0-.9.18-1.16.55-.26.36-.39.88-.39,1.56s.13,1.21.39,1.57c.26.36.65.53,1.16.53s.87-.17,1.13-.53c.26-.36.4-.88.4-1.57s-.14-1.2-.4-1.56c-.26-.36-.64-.55-1.13-.55Z"/>
  <path d="M525.32,14.31v-4.34h2.29v.71c0,.39-.01.87-.01,1.46v1.16c0,.57.01.99.04,1.23.03.26.08.44.16.55.09.16.21.27.36.35.14.08.31.12.52.12.47,0,.85-.18,1.12-.55.26-.36.4-.87.4-1.52v-3.51h2.28v7.11h-2.28v-1.03c-.34.42-.7.73-1.09.91s-.81.29-1.26.29c-.83,0-1.46-.25-1.89-.74-.43-.49-.64-1.24-.64-2.2Z"/>
  <path d="M540.21,10.18v1.73c-.49-.19-.96-.35-1.4-.45-.46-.1-.88-.16-1.29-.16-.44,0-.75.07-.96.17s-.31.27-.31.49c0,.18.08.33.23.42.16.1.44.17.86.22l.4.05c1.16.16,1.94.39,2.34.73.4.34.61.87.61,1.6s-.29,1.33-.85,1.7c-.56.38-1.39.56-2.5.56-.47,0-.96-.04-1.46-.1-.51-.07-1.03-.17-1.55-.33v-1.73c.44.23.91.4,1.39.51.47.1.96.16,1.46.16.44,0,.77-.05,1-.18.22-.12.34-.3.34-.55,0-.21-.08-.35-.23-.46s-.47-.18-.92-.23l-.4-.05c-1.01-.12-1.72-.35-2.12-.7-.42-.34-.61-.86-.61-1.56,0-.75.25-1.31.77-1.68.52-.36,1.31-.55,2.38-.55.42,0,.84.04,1.31.1s.96.16,1.51.29Z"/>
  <polygon points="546.02 9.96 548.3 9.96 550.06 14.88 551.83 9.96 554.11 9.96 551.31 17.07 548.82 17.07 546.02 9.96"/>
  <path d="M560.94,10.18v1.73c-.49-.19-.96-.35-1.4-.45-.46-.1-.88-.16-1.29-.16-.44,0-.75.07-.96.17s-.31.27-.31.49c0,.18.08.33.23.42.16.1.44.17.86.22l.4.05c1.16.16,1.94.39,2.34.73.4.34.61.87.61,1.6s-.29,1.33-.85,1.7c-.56.38-1.39.56-2.5.56-.47,0-.96-.04-1.46-.1-.51-.07-1.03-.17-1.55-.33v-1.73c.44.23.91.4,1.39.51.47.1.96.16,1.46.16.44,0,.77-.05,1-.18.22-.12.34-.3.34-.55,0-.21-.08-.35-.23-.46s-.47-.18-.92-.23l-.4-.05c-1.01-.12-1.72-.35-2.12-.7-.42-.34-.61-.86-.61-1.56,0-.75.25-1.31.77-1.68.52-.36,1.31-.55,2.38-.55.42,0,.84.04,1.31.1s.96.16,1.51.29Z"/>
  <path d="M567.76,7.6h2.57c1.43,0,2.51.1,3.21.31.7.21,1.31.55,1.82,1.04.44.43.77.92.99,1.48.21.56.33,1.2.33,1.9s-.12,1.35-.33,1.91c-.22.57-.55,1.07-.99,1.48-.52.49-1.13.85-1.83,1.05-.72.21-1.78.3-3.2.3h-2.57V7.6ZM570.2,9.44v5.79h.87c.99,0,1.76-.25,2.29-.74.52-.49.79-1.21.79-2.16s-.27-1.65-.79-2.15c-.52-.49-1.29-.74-2.29-.74h-.87Z"/>
  <path d="M578.45,7.19h2.28v1.86h-2.28v-1.86ZM578.45,9.96h2.28v7.11h-2.28v-7.11Z"/>
  <path d="M588.45,10.18v1.73c-.49-.19-.96-.35-1.4-.45-.46-.1-.88-.16-1.29-.16-.44,0-.75.07-.96.17s-.31.27-.31.49c0,.18.08.33.23.42.16.1.44.17.86.22l.4.05c1.16.16,1.94.39,2.34.73.4.34.61.87.61,1.6s-.29,1.33-.85,1.7c-.56.38-1.39.56-2.5.56-.47,0-.96-.04-1.46-.1-.51-.07-1.03-.17-1.55-.33v-1.73c.44.23.91.4,1.39.51.47.1.96.16,1.46.16.44,0,.77-.05,1-.18.22-.12.34-.3.34-.55,0-.21-.08-.35-.23-.46s-.47-.18-.92-.23l-.4-.05c-1.01-.12-1.72-.35-2.12-.7-.42-.34-.61-.86-.61-1.56,0-.75.25-1.31.77-1.68.52-.36,1.31-.55,2.38-.55.42,0,.84.04,1.31.1s.96.16,1.51.29Z"/>
  <path d="M596.39,10.18v1.86c-.31-.21-.62-.36-.94-.47-.31-.1-.64-.16-.96-.16-.64,0-1.13.2-1.48.56-.36.36-.53.88-.53,1.55s.17,1.2.53,1.56c.35.36.84.55,1.48.55.35,0,.69-.05,1.01-.16.31-.1.61-.26.88-.47v1.86c-.36.13-.73.22-1.09.29-.36.05-.73.09-1.09.09-1.29,0-2.29-.33-3.02-.98s-1.08-1.57-1.08-2.74.35-2.08,1.08-2.74c.73-.65,1.73-.99,3.02-.99.36,0,.73.04,1.09.1.36.07.73.16,1.09.29Z"/>
  <path d="M603.63,11.9c-.21-.09-.4-.16-.6-.21-.19-.04-.39-.07-.58-.07-.59,0-1.04.19-1.35.56-.31.38-.47.91-.47,1.61v3.28h-2.28v-7.11h2.28v1.17c.29-.47.61-.81,1-1.01.38-.21.83-.33,1.36-.33.08,0,.16.01.25.01.08,0,.21.01.39.04v2.05Z"/>
  <path d="M609.52,12.75c0-.43-.13-.78-.38-1.04-.26-.26-.59-.4-.99-.4-.44,0-.81.13-1.08.38-.27.25-.44.6-.51,1.07h2.95ZM611.86,13.5v.65h-5.32c.05.53.25.94.59,1.2.33.27.78.4,1.38.4.47,0,.96-.07,1.47-.21.49-.14,1.01-.36,1.55-.65v1.76c-.55.21-1.08.35-1.61.44-.55.1-1.08.16-1.61.16-1.29,0-2.29-.33-3-.98s-1.07-1.56-1.07-2.74.35-2.07,1.05-2.73,1.66-1,2.89-1c1.12,0,2,.34,2.68,1.01.68.68,1.01,1.57,1.01,2.69Z"/>
  <path d="M616.06,7.95v2.02h2.34v1.62h-2.34v3.02c0,.34.07.56.2.68s.39.17.78.17h1.17v1.62h-1.95c-.9,0-1.53-.18-1.91-.56-.38-.36-.56-1-.56-1.91v-3.02h-1.13v-1.62h1.13v-2.02h2.28Z"/>
  <path d="M624.55,12.75c0-.43-.13-.78-.38-1.04-.26-.26-.59-.4-.99-.4-.44,0-.81.13-1.08.38-.27.25-.44.6-.51,1.07h2.95ZM626.89,13.5v.65h-5.32c.05.53.25.94.59,1.2.33.27.78.4,1.38.4.47,0,.96-.07,1.47-.21.49-.14,1.01-.36,1.55-.65v1.76c-.55.21-1.08.35-1.61.44-.55.1-1.08.16-1.61.16-1.29,0-2.29-.33-3-.98s-1.07-1.56-1.07-2.74.35-2.07,1.05-2.73,1.66-1,2.89-1c1.12,0,2,.34,2.68,1.01.68.68,1.01,1.57,1.01,2.69Z"/>
  <g class="st56">
    <path d="M350.43,15.77c.1.21.39.31.86.31h.56l-.2.99h-.7c-.77,0-1.29-.2-1.55-.61-.27-.42-.31-1.07-.13-1.96l.65-3.37h-2.68l.23-1.17h6.55l-.22,1.17h-2.69l-.68,3.43c-.13.62-.13,1.03-.01,1.21Z"/>
  </g>
  <g class="st57">
    <rect x="441.58" y="13.06" width="11.73" height=".91"/>
  </g>
  <text/>
  <text/>
</svg>